<mxfile host="app.diagrams.net" agent="Mozilla/5.0 (Windows NT 10.0; Win64; x64; rv:135.0) Gecko/20100101 Firefox/135.0" version="26.0.16">
  <diagram name="PÃ¡gina-1" id="fMz4hhEYE96XLlXCHZs3">
    <mxGraphModel dx="440" dy="238" grid="1" gridSize="10" guides="1" tooltips="1" connect="1" arrows="1" fold="1" page="1" pageScale="1" pageWidth="827" pageHeight="1169" math="0" shadow="0">
      <root>
        <mxCell id="0" />
        <mxCell id="1" parent="0" />
        <mxCell id="lFvNoh6wF1m9MebqzdBh-228" value="" style="whiteSpace=wrap;html=1;aspect=fixed;rounded=1;" vertex="1" parent="1">
          <mxGeometry x="130" y="688" width="240" height="240" as="geometry" />
        </mxCell>
        <mxCell id="lFvNoh6wF1m9MebqzdBh-251" value="" style="group" vertex="1" connectable="0" parent="1">
          <mxGeometry x="180" y="700" width="133" height="70" as="geometry" />
        </mxCell>
        <mxCell id="lFvNoh6wF1m9MebqzdBh-258" value="" style="group" vertex="1" connectable="0" parent="lFvNoh6wF1m9MebqzdBh-251">
          <mxGeometry width="133" height="70" as="geometry" />
        </mxCell>
        <mxCell id="lFvNoh6wF1m9MebqzdBh-259" value="" style="group" vertex="1" connectable="0" parent="lFvNoh6wF1m9MebqzdBh-258">
          <mxGeometry width="133" height="70" as="geometry" />
        </mxCell>
        <mxCell id="lFvNoh6wF1m9MebqzdBh-230" value="" style="shape=table;startSize=0;container=1;collapsible=0;childLayout=tableLayout;" vertex="1" parent="lFvNoh6wF1m9MebqzdBh-259">
          <mxGeometry width="133" height="70" as="geometry" />
        </mxCell>
        <mxCell id="lFvNoh6wF1m9MebqzdBh-231" value="" style="shape=tableRow;horizontal=0;startSize=0;swimlaneHead=0;swimlaneBody=0;strokeColor=inherit;top=0;left=0;bottom=0;right=0;collapsible=0;dropTarget=0;fillColor=none;points=[[0,0.5],[1,0.5]];portConstraint=eastwest;" vertex="1" parent="lFvNoh6wF1m9MebqzdBh-230">
          <mxGeometry width="133" height="35" as="geometry" />
        </mxCell>
        <mxCell id="lFvNoh6wF1m9MebqzdBh-232" value="" style="shape=partialRectangle;html=1;whiteSpace=wrap;connectable=0;strokeColor=inherit;overflow=hidden;fillColor=none;top=0;left=0;bottom=0;right=0;pointerEvents=1;" vertex="1" parent="lFvNoh6wF1m9MebqzdBh-231">
          <mxGeometry width="34" height="35" as="geometry">
            <mxRectangle width="34" height="35" as="alternateBounds" />
          </mxGeometry>
        </mxCell>
        <mxCell id="lFvNoh6wF1m9MebqzdBh-233" value="" style="shape=partialRectangle;html=1;whiteSpace=wrap;connectable=0;strokeColor=inherit;overflow=hidden;fillColor=none;top=0;left=0;bottom=0;right=0;pointerEvents=1;" vertex="1" parent="lFvNoh6wF1m9MebqzdBh-231">
          <mxGeometry x="34" width="33" height="35" as="geometry">
            <mxRectangle width="33" height="35" as="alternateBounds" />
          </mxGeometry>
        </mxCell>
        <mxCell id="lFvNoh6wF1m9MebqzdBh-234" value="" style="shape=partialRectangle;html=1;whiteSpace=wrap;connectable=0;strokeColor=inherit;overflow=hidden;fillColor=none;top=0;left=0;bottom=0;right=0;pointerEvents=1;" vertex="1" parent="lFvNoh6wF1m9MebqzdBh-231">
          <mxGeometry x="67" width="34" height="35" as="geometry">
            <mxRectangle width="34" height="35" as="alternateBounds" />
          </mxGeometry>
        </mxCell>
        <mxCell id="lFvNoh6wF1m9MebqzdBh-235" value="" style="shape=partialRectangle;html=1;whiteSpace=wrap;connectable=0;strokeColor=inherit;overflow=hidden;fillColor=none;top=0;left=0;bottom=0;right=0;pointerEvents=1;" vertex="1" parent="lFvNoh6wF1m9MebqzdBh-231">
          <mxGeometry x="101" width="32" height="35" as="geometry">
            <mxRectangle width="32" height="35" as="alternateBounds" />
          </mxGeometry>
        </mxCell>
        <mxCell id="lFvNoh6wF1m9MebqzdBh-236" value="" style="shape=tableRow;horizontal=0;startSize=0;swimlaneHead=0;swimlaneBody=0;strokeColor=inherit;top=0;left=0;bottom=0;right=0;collapsible=0;dropTarget=0;fillColor=none;points=[[0,0.5],[1,0.5]];portConstraint=eastwest;" vertex="1" parent="lFvNoh6wF1m9MebqzdBh-230">
          <mxGeometry y="35" width="133" height="35" as="geometry" />
        </mxCell>
        <mxCell id="lFvNoh6wF1m9MebqzdBh-237" value="" style="shape=partialRectangle;html=1;whiteSpace=wrap;connectable=0;strokeColor=inherit;overflow=hidden;fillColor=none;top=0;left=0;bottom=0;right=0;pointerEvents=1;" vertex="1" parent="lFvNoh6wF1m9MebqzdBh-236">
          <mxGeometry width="34" height="35" as="geometry">
            <mxRectangle width="34" height="35" as="alternateBounds" />
          </mxGeometry>
        </mxCell>
        <mxCell id="lFvNoh6wF1m9MebqzdBh-238" value="" style="shape=partialRectangle;html=1;whiteSpace=wrap;connectable=0;strokeColor=inherit;overflow=hidden;fillColor=none;top=0;left=0;bottom=0;right=0;pointerEvents=1;" vertex="1" parent="lFvNoh6wF1m9MebqzdBh-236">
          <mxGeometry x="34" width="33" height="35" as="geometry">
            <mxRectangle width="33" height="35" as="alternateBounds" />
          </mxGeometry>
        </mxCell>
        <mxCell id="lFvNoh6wF1m9MebqzdBh-239" value="" style="shape=partialRectangle;html=1;whiteSpace=wrap;connectable=0;strokeColor=inherit;overflow=hidden;fillColor=none;top=0;left=0;bottom=0;right=0;pointerEvents=1;" vertex="1" parent="lFvNoh6wF1m9MebqzdBh-236">
          <mxGeometry x="67" width="34" height="35" as="geometry">
            <mxRectangle width="34" height="35" as="alternateBounds" />
          </mxGeometry>
        </mxCell>
        <mxCell id="lFvNoh6wF1m9MebqzdBh-240" value="" style="shape=partialRectangle;html=1;whiteSpace=wrap;connectable=0;strokeColor=inherit;overflow=hidden;fillColor=none;top=0;left=0;bottom=0;right=0;pointerEvents=1;" vertex="1" parent="lFvNoh6wF1m9MebqzdBh-236">
          <mxGeometry x="101" width="32" height="35" as="geometry">
            <mxRectangle width="32" height="35" as="alternateBounds" />
          </mxGeometry>
        </mxCell>
        <mxCell id="lFvNoh6wF1m9MebqzdBh-332" style="rounded=0;orthogonalLoop=1;jettySize=auto;html=1;exitX=0;exitY=0.5;exitDx=0;exitDy=0;strokeColor=#d79b00;edgeStyle=orthogonalEdgeStyle;startArrow=none;startFill=0;endArrow=none;fillColor=#ffe6cc;strokeWidth=3;" edge="1" parent="lFvNoh6wF1m9MebqzdBh-259" source="lFvNoh6wF1m9MebqzdBh-241">
          <mxGeometry relative="1" as="geometry">
            <mxPoint x="-30" y="-180" as="targetPoint" />
          </mxGeometry>
        </mxCell>
        <mxCell id="lFvNoh6wF1m9MebqzdBh-241" value="" style="ellipse;whiteSpace=wrap;html=1;aspect=fixed;" vertex="1" parent="lFvNoh6wF1m9MebqzdBh-259">
          <mxGeometry x="7" y="7" width="21" height="21" as="geometry" />
        </mxCell>
        <mxCell id="lFvNoh6wF1m9MebqzdBh-333" style="edgeStyle=orthogonalEdgeStyle;rounded=0;orthogonalLoop=1;jettySize=auto;html=1;exitX=0;exitY=1;exitDx=0;exitDy=0;fillColor=#dae8fc;strokeColor=#6c8ebf;endArrow=none;startFill=0;" edge="1" parent="lFvNoh6wF1m9MebqzdBh-259" source="lFvNoh6wF1m9MebqzdBh-242">
          <mxGeometry relative="1" as="geometry">
            <mxPoint x="20.000000000000114" y="-140" as="targetPoint" />
            <Array as="points">
              <mxPoint x="43" y="-30" />
              <mxPoint x="20" y="-30" />
              <mxPoint x="20" y="-66" />
              <mxPoint x="21" y="-66" />
              <mxPoint x="21" y="-140" />
            </Array>
          </mxGeometry>
        </mxCell>
        <mxCell id="lFvNoh6wF1m9MebqzdBh-242" value="" style="ellipse;whiteSpace=wrap;html=1;aspect=fixed;" vertex="1" parent="lFvNoh6wF1m9MebqzdBh-259">
          <mxGeometry x="39.9" y="7" width="21" height="21" as="geometry" />
        </mxCell>
        <mxCell id="lFvNoh6wF1m9MebqzdBh-244" value="" style="ellipse;whiteSpace=wrap;html=1;aspect=fixed;" vertex="1" parent="lFvNoh6wF1m9MebqzdBh-259">
          <mxGeometry x="72.8" y="7" width="21" height="21" as="geometry" />
        </mxCell>
        <mxCell id="lFvNoh6wF1m9MebqzdBh-245" value="" style="ellipse;whiteSpace=wrap;html=1;aspect=fixed;" vertex="1" parent="lFvNoh6wF1m9MebqzdBh-259">
          <mxGeometry x="105" y="7" width="21" height="21" as="geometry" />
        </mxCell>
        <mxCell id="lFvNoh6wF1m9MebqzdBh-246" value="" style="ellipse;whiteSpace=wrap;html=1;aspect=fixed;" vertex="1" parent="lFvNoh6wF1m9MebqzdBh-259">
          <mxGeometry x="105" y="42" width="21" height="21" as="geometry" />
        </mxCell>
        <mxCell id="lFvNoh6wF1m9MebqzdBh-247" value="" style="ellipse;whiteSpace=wrap;html=1;aspect=fixed;" vertex="1" parent="lFvNoh6wF1m9MebqzdBh-259">
          <mxGeometry x="72.8" y="42" width="21" height="21" as="geometry" />
        </mxCell>
        <mxCell id="lFvNoh6wF1m9MebqzdBh-249" value="" style="ellipse;whiteSpace=wrap;html=1;aspect=fixed;" vertex="1" parent="lFvNoh6wF1m9MebqzdBh-259">
          <mxGeometry x="39.9" y="42" width="21" height="21" as="geometry" />
        </mxCell>
        <mxCell id="lFvNoh6wF1m9MebqzdBh-250" value="" style="ellipse;whiteSpace=wrap;html=1;aspect=fixed;" vertex="1" parent="lFvNoh6wF1m9MebqzdBh-259">
          <mxGeometry x="7" y="42" width="21" height="21" as="geometry" />
        </mxCell>
        <mxCell id="lFvNoh6wF1m9MebqzdBh-253" value="&lt;div&gt;220ACV &lt;br&gt;&lt;/div&gt;&lt;div&gt;IN&lt;/div&gt;" style="text;strokeColor=none;align=center;fillColor=none;html=1;verticalAlign=middle;whiteSpace=wrap;rounded=0;" vertex="1" parent="1">
          <mxGeometry x="180" y="630" width="60" height="30" as="geometry" />
        </mxCell>
        <mxCell id="lFvNoh6wF1m9MebqzdBh-255" value="220ACV OUT" style="text;strokeColor=none;align=center;fillColor=none;html=1;verticalAlign=middle;whiteSpace=wrap;rounded=0;" vertex="1" parent="1">
          <mxGeometry x="253" y="630" width="60" height="30" as="geometry" />
        </mxCell>
        <mxCell id="lFvNoh6wF1m9MebqzdBh-260" value="" style="group" vertex="1" connectable="0" parent="1">
          <mxGeometry x="520" y="1180" width="360" height="230" as="geometry" />
        </mxCell>
        <mxCell id="lFvNoh6wF1m9MebqzdBh-138" value="" style="group" vertex="1" connectable="0" parent="lFvNoh6wF1m9MebqzdBh-260">
          <mxGeometry y="34" width="360" height="196" as="geometry" />
        </mxCell>
        <mxCell id="lFvNoh6wF1m9MebqzdBh-134" value="" style="rounded=0;whiteSpace=wrap;html=1;" vertex="1" parent="lFvNoh6wF1m9MebqzdBh-138">
          <mxGeometry width="77.64705882352942" height="101" as="geometry" />
        </mxCell>
        <mxCell id="lFvNoh6wF1m9MebqzdBh-135" value="" style="rounded=0;whiteSpace=wrap;html=1;" vertex="1" parent="lFvNoh6wF1m9MebqzdBh-138">
          <mxGeometry x="84.11764705882354" width="77.64705882352942" height="101" as="geometry" />
        </mxCell>
        <mxCell id="lFvNoh6wF1m9MebqzdBh-136" value="" style="rounded=0;whiteSpace=wrap;html=1;" vertex="1" parent="lFvNoh6wF1m9MebqzdBh-138">
          <mxGeometry x="168.23529411764707" width="77.64705882352942" height="101" as="geometry" />
        </mxCell>
        <mxCell id="lFvNoh6wF1m9MebqzdBh-137" value="" style="rounded=0;whiteSpace=wrap;html=1;" vertex="1" parent="lFvNoh6wF1m9MebqzdBh-138">
          <mxGeometry x="252.3529411764706" width="77.64705882352942" height="101" as="geometry" />
        </mxCell>
        <mxCell id="lFvNoh6wF1m9MebqzdBh-157" value="" style="rounded=1;whiteSpace=wrap;html=1;fillColor=none;" vertex="1" parent="lFvNoh6wF1m9MebqzdBh-138">
          <mxGeometry x="-20" y="-49" width="380" height="240" as="geometry" />
        </mxCell>
        <mxCell id="lFvNoh6wF1m9MebqzdBh-180" value="" style="group" vertex="1" connectable="0" parent="lFvNoh6wF1m9MebqzdBh-138">
          <mxGeometry y="-39" width="160" height="20" as="geometry" />
        </mxCell>
        <mxCell id="lFvNoh6wF1m9MebqzdBh-195" value="" style="group" vertex="1" connectable="0" parent="lFvNoh6wF1m9MebqzdBh-180">
          <mxGeometry width="160" height="20" as="geometry" />
        </mxCell>
        <mxCell id="lFvNoh6wF1m9MebqzdBh-210" value="" style="group" vertex="1" connectable="0" parent="lFvNoh6wF1m9MebqzdBh-195">
          <mxGeometry width="160" height="20" as="geometry" />
        </mxCell>
        <mxCell id="lFvNoh6wF1m9MebqzdBh-158" value="" style="shape=table;startSize=0;container=1;collapsible=0;childLayout=tableLayout;" vertex="1" parent="lFvNoh6wF1m9MebqzdBh-210">
          <mxGeometry width="160" height="20" as="geometry" />
        </mxCell>
        <mxCell id="lFvNoh6wF1m9MebqzdBh-159" value="" style="shape=tableRow;horizontal=0;startSize=0;swimlaneHead=0;swimlaneBody=0;strokeColor=inherit;top=0;left=0;bottom=0;right=0;collapsible=0;dropTarget=0;fillColor=none;points=[[0,0.5],[1,0.5]];portConstraint=eastwest;" vertex="1" parent="lFvNoh6wF1m9MebqzdBh-158">
          <mxGeometry width="160" height="20" as="geometry" />
        </mxCell>
        <mxCell id="lFvNoh6wF1m9MebqzdBh-160" value="" style="shape=partialRectangle;html=1;whiteSpace=wrap;connectable=0;strokeColor=inherit;overflow=hidden;fillColor=none;top=0;left=0;bottom=0;right=0;pointerEvents=1;" vertex="1" parent="lFvNoh6wF1m9MebqzdBh-159">
          <mxGeometry width="27" height="20" as="geometry">
            <mxRectangle width="27" height="20" as="alternateBounds" />
          </mxGeometry>
        </mxCell>
        <mxCell id="lFvNoh6wF1m9MebqzdBh-161" value="" style="shape=partialRectangle;html=1;whiteSpace=wrap;connectable=0;strokeColor=inherit;overflow=hidden;fillColor=none;top=0;left=0;bottom=0;right=0;pointerEvents=1;" vertex="1" parent="lFvNoh6wF1m9MebqzdBh-159">
          <mxGeometry x="27" width="26" height="20" as="geometry">
            <mxRectangle width="26" height="20" as="alternateBounds" />
          </mxGeometry>
        </mxCell>
        <mxCell id="lFvNoh6wF1m9MebqzdBh-162" value="" style="shape=partialRectangle;html=1;whiteSpace=wrap;connectable=0;strokeColor=inherit;overflow=hidden;fillColor=none;top=0;left=0;bottom=0;right=0;pointerEvents=1;" vertex="1" parent="lFvNoh6wF1m9MebqzdBh-159">
          <mxGeometry x="53" width="27" height="20" as="geometry">
            <mxRectangle width="27" height="20" as="alternateBounds" />
          </mxGeometry>
        </mxCell>
        <mxCell id="lFvNoh6wF1m9MebqzdBh-163" value="" style="shape=partialRectangle;html=1;whiteSpace=wrap;connectable=0;strokeColor=inherit;overflow=hidden;fillColor=none;top=0;left=0;bottom=0;right=0;pointerEvents=1;" vertex="1" parent="lFvNoh6wF1m9MebqzdBh-159">
          <mxGeometry x="80" width="27" height="20" as="geometry">
            <mxRectangle width="27" height="20" as="alternateBounds" />
          </mxGeometry>
        </mxCell>
        <mxCell id="lFvNoh6wF1m9MebqzdBh-164" value="" style="shape=partialRectangle;html=1;whiteSpace=wrap;connectable=0;strokeColor=inherit;overflow=hidden;fillColor=none;top=0;left=0;bottom=0;right=0;pointerEvents=1;" vertex="1" parent="lFvNoh6wF1m9MebqzdBh-159">
          <mxGeometry x="107" width="26" height="20" as="geometry">
            <mxRectangle width="26" height="20" as="alternateBounds" />
          </mxGeometry>
        </mxCell>
        <mxCell id="lFvNoh6wF1m9MebqzdBh-165" value="" style="shape=partialRectangle;html=1;whiteSpace=wrap;connectable=0;strokeColor=inherit;overflow=hidden;fillColor=none;top=0;left=0;bottom=0;right=0;pointerEvents=1;" vertex="1" parent="lFvNoh6wF1m9MebqzdBh-159">
          <mxGeometry x="133" width="27" height="20" as="geometry">
            <mxRectangle width="27" height="20" as="alternateBounds" />
          </mxGeometry>
        </mxCell>
        <mxCell id="lFvNoh6wF1m9MebqzdBh-174" value="" style="ellipse;whiteSpace=wrap;html=1;aspect=fixed;" vertex="1" parent="lFvNoh6wF1m9MebqzdBh-210">
          <mxGeometry x="10" y="5" width="10" height="10" as="geometry" />
        </mxCell>
        <mxCell id="lFvNoh6wF1m9MebqzdBh-176" value="" style="ellipse;whiteSpace=wrap;html=1;aspect=fixed;" vertex="1" parent="lFvNoh6wF1m9MebqzdBh-210">
          <mxGeometry x="61" y="5" width="10" height="10" as="geometry" />
        </mxCell>
        <mxCell id="lFvNoh6wF1m9MebqzdBh-177" value="" style="ellipse;whiteSpace=wrap;html=1;aspect=fixed;" vertex="1" parent="lFvNoh6wF1m9MebqzdBh-210">
          <mxGeometry x="88" y="5" width="10" height="10" as="geometry" />
        </mxCell>
        <mxCell id="lFvNoh6wF1m9MebqzdBh-179" value="" style="ellipse;whiteSpace=wrap;html=1;aspect=fixed;" vertex="1" parent="lFvNoh6wF1m9MebqzdBh-210">
          <mxGeometry x="140" y="5" width="10" height="10" as="geometry" />
        </mxCell>
        <mxCell id="lFvNoh6wF1m9MebqzdBh-178" value="" style="ellipse;whiteSpace=wrap;html=1;aspect=fixed;" vertex="1" parent="lFvNoh6wF1m9MebqzdBh-210">
          <mxGeometry x="115" y="5" width="10" height="10" as="geometry" />
        </mxCell>
        <mxCell id="lFvNoh6wF1m9MebqzdBh-227" value="" style="group" vertex="1" connectable="0" parent="lFvNoh6wF1m9MebqzdBh-138">
          <mxGeometry x="168.24" y="-39" width="160" height="20" as="geometry" />
        </mxCell>
        <mxCell id="lFvNoh6wF1m9MebqzdBh-212" value="" style="shape=table;startSize=0;container=1;collapsible=0;childLayout=tableLayout;" vertex="1" parent="lFvNoh6wF1m9MebqzdBh-227">
          <mxGeometry width="160" height="20" as="geometry" />
        </mxCell>
        <mxCell id="lFvNoh6wF1m9MebqzdBh-213" value="" style="shape=tableRow;horizontal=0;startSize=0;swimlaneHead=0;swimlaneBody=0;strokeColor=inherit;top=0;left=0;bottom=0;right=0;collapsible=0;dropTarget=0;fillColor=none;points=[[0,0.5],[1,0.5]];portConstraint=eastwest;" vertex="1" parent="lFvNoh6wF1m9MebqzdBh-212">
          <mxGeometry width="160" height="20" as="geometry" />
        </mxCell>
        <mxCell id="lFvNoh6wF1m9MebqzdBh-214" value="" style="shape=partialRectangle;html=1;whiteSpace=wrap;connectable=0;strokeColor=inherit;overflow=hidden;fillColor=none;top=0;left=0;bottom=0;right=0;pointerEvents=1;" vertex="1" parent="lFvNoh6wF1m9MebqzdBh-213">
          <mxGeometry width="27" height="20" as="geometry">
            <mxRectangle width="27" height="20" as="alternateBounds" />
          </mxGeometry>
        </mxCell>
        <mxCell id="lFvNoh6wF1m9MebqzdBh-215" value="" style="shape=partialRectangle;html=1;whiteSpace=wrap;connectable=0;strokeColor=inherit;overflow=hidden;fillColor=none;top=0;left=0;bottom=0;right=0;pointerEvents=1;" vertex="1" parent="lFvNoh6wF1m9MebqzdBh-213">
          <mxGeometry x="27" width="26" height="20" as="geometry">
            <mxRectangle width="26" height="20" as="alternateBounds" />
          </mxGeometry>
        </mxCell>
        <mxCell id="lFvNoh6wF1m9MebqzdBh-216" value="" style="shape=partialRectangle;html=1;whiteSpace=wrap;connectable=0;strokeColor=inherit;overflow=hidden;fillColor=none;top=0;left=0;bottom=0;right=0;pointerEvents=1;" vertex="1" parent="lFvNoh6wF1m9MebqzdBh-213">
          <mxGeometry x="53" width="27" height="20" as="geometry">
            <mxRectangle width="27" height="20" as="alternateBounds" />
          </mxGeometry>
        </mxCell>
        <mxCell id="lFvNoh6wF1m9MebqzdBh-217" value="" style="shape=partialRectangle;html=1;whiteSpace=wrap;connectable=0;strokeColor=inherit;overflow=hidden;fillColor=none;top=0;left=0;bottom=0;right=0;pointerEvents=1;" vertex="1" parent="lFvNoh6wF1m9MebqzdBh-213">
          <mxGeometry x="80" width="27" height="20" as="geometry">
            <mxRectangle width="27" height="20" as="alternateBounds" />
          </mxGeometry>
        </mxCell>
        <mxCell id="lFvNoh6wF1m9MebqzdBh-218" value="" style="shape=partialRectangle;html=1;whiteSpace=wrap;connectable=0;strokeColor=inherit;overflow=hidden;fillColor=none;top=0;left=0;bottom=0;right=0;pointerEvents=1;" vertex="1" parent="lFvNoh6wF1m9MebqzdBh-213">
          <mxGeometry x="107" width="26" height="20" as="geometry">
            <mxRectangle width="26" height="20" as="alternateBounds" />
          </mxGeometry>
        </mxCell>
        <mxCell id="lFvNoh6wF1m9MebqzdBh-219" value="" style="shape=partialRectangle;html=1;whiteSpace=wrap;connectable=0;strokeColor=inherit;overflow=hidden;fillColor=none;top=0;left=0;bottom=0;right=0;pointerEvents=1;" vertex="1" parent="lFvNoh6wF1m9MebqzdBh-213">
          <mxGeometry x="133" width="27" height="20" as="geometry">
            <mxRectangle width="27" height="20" as="alternateBounds" />
          </mxGeometry>
        </mxCell>
        <mxCell id="lFvNoh6wF1m9MebqzdBh-220" value="" style="ellipse;whiteSpace=wrap;html=1;aspect=fixed;" vertex="1" parent="lFvNoh6wF1m9MebqzdBh-227">
          <mxGeometry x="10" y="5" width="10" height="10" as="geometry" />
        </mxCell>
        <mxCell id="lFvNoh6wF1m9MebqzdBh-221" value="" style="ellipse;whiteSpace=wrap;html=1;aspect=fixed;" vertex="1" parent="lFvNoh6wF1m9MebqzdBh-227">
          <mxGeometry x="61" y="5" width="10" height="10" as="geometry" />
        </mxCell>
        <mxCell id="lFvNoh6wF1m9MebqzdBh-222" value="" style="ellipse;whiteSpace=wrap;html=1;aspect=fixed;" vertex="1" parent="lFvNoh6wF1m9MebqzdBh-227">
          <mxGeometry x="88" y="5" width="10" height="10" as="geometry" />
        </mxCell>
        <mxCell id="lFvNoh6wF1m9MebqzdBh-223" value="" style="ellipse;whiteSpace=wrap;html=1;aspect=fixed;" vertex="1" parent="lFvNoh6wF1m9MebqzdBh-227">
          <mxGeometry x="140" y="5" width="10" height="10" as="geometry" />
        </mxCell>
        <mxCell id="lFvNoh6wF1m9MebqzdBh-350" style="edgeStyle=orthogonalEdgeStyle;rounded=0;orthogonalLoop=1;jettySize=auto;html=1;exitX=1;exitY=0.5;exitDx=0;exitDy=0;fillColor=#647687;strokeColor=#314354;endArrow=none;startFill=0;strokeWidth=3;" edge="1" parent="lFvNoh6wF1m9MebqzdBh-227" source="lFvNoh6wF1m9MebqzdBh-224">
          <mxGeometry relative="1" as="geometry">
            <mxPoint x="41.75999999999999" y="-235" as="targetPoint" />
            <Array as="points">
              <mxPoint x="122" y="10" />
              <mxPoint x="122" y="-175" />
              <mxPoint x="42" y="-175" />
            </Array>
          </mxGeometry>
        </mxCell>
        <mxCell id="lFvNoh6wF1m9MebqzdBh-224" value="" style="ellipse;whiteSpace=wrap;html=1;aspect=fixed;" vertex="1" parent="lFvNoh6wF1m9MebqzdBh-227">
          <mxGeometry x="115" y="5" width="10" height="10" as="geometry" />
        </mxCell>
        <mxCell id="lFvNoh6wF1m9MebqzdBh-225" value="" style="ellipse;whiteSpace=wrap;html=1;aspect=fixed;" vertex="1" parent="lFvNoh6wF1m9MebqzdBh-227">
          <mxGeometry x="35" y="5" width="10" height="10" as="geometry" />
        </mxCell>
        <mxCell id="lFvNoh6wF1m9MebqzdBh-282" value="&lt;b&gt;RELAY&lt;/b&gt;" style="text;strokeColor=none;align=center;fillColor=none;html=1;verticalAlign=middle;whiteSpace=wrap;rounded=0;" vertex="1" parent="lFvNoh6wF1m9MebqzdBh-138">
          <mxGeometry x="60" y="126" width="60" height="30" as="geometry" />
        </mxCell>
        <mxCell id="lFvNoh6wF1m9MebqzdBh-293" value="NO_3" style="text;strokeColor=none;align=center;fillColor=none;html=1;verticalAlign=middle;whiteSpace=wrap;rounded=0;fontSize=8;" vertex="1" parent="lFvNoh6wF1m9MebqzdBh-138">
          <mxGeometry x="222.35000000000002" y="-24" width="30" height="30" as="geometry" />
        </mxCell>
        <mxCell id="lFvNoh6wF1m9MebqzdBh-296" value="&lt;div&gt;COM_4&lt;/div&gt;" style="text;strokeColor=none;align=center;fillColor=none;html=1;verticalAlign=middle;whiteSpace=wrap;rounded=0;fontSize=8;" vertex="1" parent="lFvNoh6wF1m9MebqzdBh-138">
          <mxGeometry x="276.17999999999995" y="-24" width="30" height="30" as="geometry" />
        </mxCell>
        <mxCell id="lFvNoh6wF1m9MebqzdBh-298" value="GND" style="text;strokeColor=none;align=center;fillColor=none;html=1;verticalAlign=middle;whiteSpace=wrap;rounded=0;fontSize=8;" vertex="1" parent="lFvNoh6wF1m9MebqzdBh-138">
          <mxGeometry x="214" y="136" width="30" height="30" as="geometry" />
        </mxCell>
        <mxCell id="lFvNoh6wF1m9MebqzdBh-301" value="IN1" style="text;strokeColor=none;align=center;fillColor=none;html=1;verticalAlign=middle;whiteSpace=wrap;rounded=0;fontSize=8;" vertex="1" parent="lFvNoh6wF1m9MebqzdBh-138">
          <mxGeometry x="235.88" y="136" width="30" height="30" as="geometry" />
        </mxCell>
        <mxCell id="lFvNoh6wF1m9MebqzdBh-302" value="IN2" style="text;strokeColor=none;align=center;fillColor=none;html=1;verticalAlign=middle;whiteSpace=wrap;rounded=0;fontSize=8;" vertex="1" parent="lFvNoh6wF1m9MebqzdBh-138">
          <mxGeometry x="254.88" y="136" width="30" height="30" as="geometry" />
        </mxCell>
        <mxCell id="lFvNoh6wF1m9MebqzdBh-303" value="IN3" style="text;strokeColor=none;align=center;fillColor=none;html=1;verticalAlign=middle;whiteSpace=wrap;rounded=0;fontSize=8;" vertex="1" parent="lFvNoh6wF1m9MebqzdBh-138">
          <mxGeometry x="273.88" y="136" width="30" height="30" as="geometry" />
        </mxCell>
        <mxCell id="lFvNoh6wF1m9MebqzdBh-351" value="IN4" style="text;strokeColor=none;align=center;fillColor=none;html=1;verticalAlign=middle;whiteSpace=wrap;rounded=0;fontSize=8;" vertex="1" parent="lFvNoh6wF1m9MebqzdBh-138">
          <mxGeometry x="294.88" y="136" width="30" height="30" as="geometry" />
        </mxCell>
        <mxCell id="lFvNoh6wF1m9MebqzdBh-352" value="&lt;div&gt;vcc&lt;/div&gt;" style="text;strokeColor=none;align=center;fillColor=none;html=1;verticalAlign=middle;whiteSpace=wrap;rounded=0;fontSize=8;" vertex="1" parent="lFvNoh6wF1m9MebqzdBh-138">
          <mxGeometry x="315.88" y="136" width="30" height="30" as="geometry" />
        </mxCell>
        <mxCell id="lFvNoh6wF1m9MebqzdBh-175" value="" style="ellipse;whiteSpace=wrap;html=1;aspect=fixed;" vertex="1" parent="lFvNoh6wF1m9MebqzdBh-260">
          <mxGeometry x="34.82000000000005" width="10" height="10" as="geometry" />
        </mxCell>
        <mxCell id="lFvNoh6wF1m9MebqzdBh-290" value="NC_3" style="text;strokeColor=none;align=center;fillColor=none;html=1;verticalAlign=middle;whiteSpace=wrap;rounded=0;fontSize=8;" vertex="1" parent="lFvNoh6wF1m9MebqzdBh-260">
          <mxGeometry x="165" y="10" width="30" height="30" as="geometry" />
        </mxCell>
        <mxCell id="lFvNoh6wF1m9MebqzdBh-292" value="COM_3" style="text;strokeColor=none;align=center;fillColor=none;html=1;verticalAlign=middle;whiteSpace=wrap;rounded=0;fontSize=8;" vertex="1" parent="lFvNoh6wF1m9MebqzdBh-260">
          <mxGeometry x="195" y="10" width="30" height="30" as="geometry" />
        </mxCell>
        <mxCell id="lFvNoh6wF1m9MebqzdBh-294" value="NC_4" style="text;strokeColor=none;align=center;fillColor=none;html=1;verticalAlign=middle;whiteSpace=wrap;rounded=0;fontSize=8;" vertex="1" parent="lFvNoh6wF1m9MebqzdBh-260">
          <mxGeometry x="247" y="10" width="30" height="30" as="geometry" />
        </mxCell>
        <mxCell id="lFvNoh6wF1m9MebqzdBh-297" value="&lt;div&gt;NO_4&lt;/div&gt;" style="text;strokeColor=none;align=center;fillColor=none;html=1;verticalAlign=middle;whiteSpace=wrap;rounded=0;fontSize=8;" vertex="1" parent="lFvNoh6wF1m9MebqzdBh-260">
          <mxGeometry x="303" y="10" width="30" height="30" as="geometry" />
        </mxCell>
        <mxCell id="lFvNoh6wF1m9MebqzdBh-261" value="" style="verticalLabelPosition=bottom;aspect=fixed;html=1;verticalAlign=top;fillColor=strokeColor;align=center;outlineConnect=0;shape=mxgraph.fluid_power.x10220;points=[[0.665,0,0],[0.665,1,0],[0,0.62,0],[0.37,0.25,0],[0.37,0.75,0]]" vertex="1" parent="1">
          <mxGeometry x="1241" y="1290.4" width="268.58" height="159.6" as="geometry" />
        </mxCell>
        <mxCell id="lFvNoh6wF1m9MebqzdBh-266" value="220 VAC / 24 VAC" style="text;strokeColor=none;align=center;fillColor=none;html=1;verticalAlign=middle;whiteSpace=wrap;rounded=0;fontStyle=1" vertex="1" parent="1">
          <mxGeometry x="194.75" y="800" width="115.25" height="60" as="geometry" />
        </mxCell>
        <mxCell id="lFvNoh6wF1m9MebqzdBh-267" value="" style="rounded=0;whiteSpace=wrap;html=1;" vertex="1" parent="1">
          <mxGeometry x="186.5" y="1080" width="143.5" height="100" as="geometry" />
        </mxCell>
        <mxCell id="lFvNoh6wF1m9MebqzdBh-268" value="24 VAC / 5 VDC" style="text;strokeColor=none;align=center;fillColor=none;html=1;verticalAlign=middle;whiteSpace=wrap;rounded=0;fontStyle=1" vertex="1" parent="1">
          <mxGeometry x="199.75" y="1090" width="115.25" height="60" as="geometry" />
        </mxCell>
        <mxCell id="lFvNoh6wF1m9MebqzdBh-280" value="" style="group" vertex="1" connectable="0" parent="1">
          <mxGeometry x="198" y="1151" width="120" height="20" as="geometry" />
        </mxCell>
        <mxCell id="lFvNoh6wF1m9MebqzdBh-270" value="" style="shape=table;startSize=0;container=1;collapsible=0;childLayout=tableLayout;" vertex="1" parent="lFvNoh6wF1m9MebqzdBh-280">
          <mxGeometry width="120" height="20" as="geometry" />
        </mxCell>
        <mxCell id="lFvNoh6wF1m9MebqzdBh-271" value="" style="shape=tableRow;horizontal=0;startSize=0;swimlaneHead=0;swimlaneBody=0;strokeColor=inherit;top=0;left=0;bottom=0;right=0;collapsible=0;dropTarget=0;fillColor=none;points=[[0,0.5],[1,0.5]];portConstraint=eastwest;" vertex="1" parent="lFvNoh6wF1m9MebqzdBh-270">
          <mxGeometry width="120" height="20" as="geometry" />
        </mxCell>
        <mxCell id="lFvNoh6wF1m9MebqzdBh-272" value="" style="shape=partialRectangle;html=1;whiteSpace=wrap;connectable=0;strokeColor=inherit;overflow=hidden;fillColor=none;top=0;left=0;bottom=0;right=0;pointerEvents=1;" vertex="1" parent="lFvNoh6wF1m9MebqzdBh-271">
          <mxGeometry width="30" height="20" as="geometry">
            <mxRectangle width="30" height="20" as="alternateBounds" />
          </mxGeometry>
        </mxCell>
        <mxCell id="lFvNoh6wF1m9MebqzdBh-273" value="" style="shape=partialRectangle;html=1;whiteSpace=wrap;connectable=0;strokeColor=inherit;overflow=hidden;fillColor=none;top=0;left=0;bottom=0;right=0;pointerEvents=1;" vertex="1" parent="lFvNoh6wF1m9MebqzdBh-271">
          <mxGeometry x="30" width="30" height="20" as="geometry">
            <mxRectangle width="30" height="20" as="alternateBounds" />
          </mxGeometry>
        </mxCell>
        <mxCell id="lFvNoh6wF1m9MebqzdBh-274" value="" style="shape=partialRectangle;html=1;whiteSpace=wrap;connectable=0;strokeColor=inherit;overflow=hidden;fillColor=none;top=0;left=0;bottom=0;right=0;pointerEvents=1;" vertex="1" parent="lFvNoh6wF1m9MebqzdBh-271">
          <mxGeometry x="60" width="30" height="20" as="geometry">
            <mxRectangle width="30" height="20" as="alternateBounds" />
          </mxGeometry>
        </mxCell>
        <mxCell id="lFvNoh6wF1m9MebqzdBh-275" value="" style="shape=partialRectangle;html=1;whiteSpace=wrap;connectable=0;strokeColor=inherit;overflow=hidden;fillColor=none;top=0;left=0;bottom=0;right=0;pointerEvents=1;" vertex="1" parent="lFvNoh6wF1m9MebqzdBh-271">
          <mxGeometry x="90" width="30" height="20" as="geometry">
            <mxRectangle width="30" height="20" as="alternateBounds" />
          </mxGeometry>
        </mxCell>
        <mxCell id="lFvNoh6wF1m9MebqzdBh-276" value="" style="ellipse;whiteSpace=wrap;html=1;aspect=fixed;" vertex="1" parent="lFvNoh6wF1m9MebqzdBh-280">
          <mxGeometry x="8" y="2.5" width="15" height="15" as="geometry" />
        </mxCell>
        <mxCell id="lFvNoh6wF1m9MebqzdBh-277" value="" style="ellipse;whiteSpace=wrap;html=1;aspect=fixed;" vertex="1" parent="lFvNoh6wF1m9MebqzdBh-280">
          <mxGeometry x="39" y="2.5" width="15" height="15" as="geometry" />
        </mxCell>
        <mxCell id="lFvNoh6wF1m9MebqzdBh-278" value="" style="ellipse;whiteSpace=wrap;html=1;aspect=fixed;" vertex="1" parent="lFvNoh6wF1m9MebqzdBh-280">
          <mxGeometry x="66.5" y="2.5" width="15" height="15" as="geometry" />
        </mxCell>
        <mxCell id="lFvNoh6wF1m9MebqzdBh-279" value="" style="ellipse;whiteSpace=wrap;html=1;aspect=fixed;" vertex="1" parent="lFvNoh6wF1m9MebqzdBh-280">
          <mxGeometry x="97.5" y="2.5" width="15" height="15" as="geometry" />
        </mxCell>
        <mxCell id="lFvNoh6wF1m9MebqzdBh-321" value="" style="group" vertex="1" connectable="0" parent="1">
          <mxGeometry x="740" y="1380" width="120" height="10" as="geometry" />
        </mxCell>
        <mxCell id="lFvNoh6wF1m9MebqzdBh-305" value="" style="shape=table;startSize=0;container=1;collapsible=0;childLayout=tableLayout;" vertex="1" parent="lFvNoh6wF1m9MebqzdBh-321">
          <mxGeometry y="-1" width="120" height="10" as="geometry" />
        </mxCell>
        <mxCell id="lFvNoh6wF1m9MebqzdBh-306" value="" style="shape=tableRow;horizontal=0;startSize=0;swimlaneHead=0;swimlaneBody=0;strokeColor=inherit;top=0;left=0;bottom=0;right=0;collapsible=0;dropTarget=0;fillColor=none;points=[[0,0.5],[1,0.5]];portConstraint=eastwest;" vertex="1" parent="lFvNoh6wF1m9MebqzdBh-305">
          <mxGeometry width="120" height="10" as="geometry" />
        </mxCell>
        <mxCell id="lFvNoh6wF1m9MebqzdBh-307" value="" style="shape=partialRectangle;html=1;whiteSpace=wrap;connectable=0;strokeColor=inherit;overflow=hidden;fillColor=none;top=0;left=0;bottom=0;right=0;pointerEvents=1;" vertex="1" parent="lFvNoh6wF1m9MebqzdBh-306">
          <mxGeometry width="20" height="10" as="geometry">
            <mxRectangle width="20" height="10" as="alternateBounds" />
          </mxGeometry>
        </mxCell>
        <mxCell id="lFvNoh6wF1m9MebqzdBh-308" value="" style="shape=partialRectangle;html=1;whiteSpace=wrap;connectable=0;strokeColor=inherit;overflow=hidden;fillColor=none;top=0;left=0;bottom=0;right=0;pointerEvents=1;" vertex="1" parent="lFvNoh6wF1m9MebqzdBh-306">
          <mxGeometry x="20" width="20" height="10" as="geometry">
            <mxRectangle width="20" height="10" as="alternateBounds" />
          </mxGeometry>
        </mxCell>
        <mxCell id="lFvNoh6wF1m9MebqzdBh-309" value="" style="shape=partialRectangle;html=1;whiteSpace=wrap;connectable=0;strokeColor=inherit;overflow=hidden;fillColor=none;top=0;left=0;bottom=0;right=0;pointerEvents=1;" vertex="1" parent="lFvNoh6wF1m9MebqzdBh-306">
          <mxGeometry x="40" width="20" height="10" as="geometry">
            <mxRectangle width="20" height="10" as="alternateBounds" />
          </mxGeometry>
        </mxCell>
        <mxCell id="lFvNoh6wF1m9MebqzdBh-310" value="" style="shape=partialRectangle;html=1;whiteSpace=wrap;connectable=0;strokeColor=inherit;overflow=hidden;fillColor=none;top=0;left=0;bottom=0;right=0;pointerEvents=1;" vertex="1" parent="lFvNoh6wF1m9MebqzdBh-306">
          <mxGeometry x="60" width="20" height="10" as="geometry">
            <mxRectangle width="20" height="10" as="alternateBounds" />
          </mxGeometry>
        </mxCell>
        <mxCell id="lFvNoh6wF1m9MebqzdBh-311" value="" style="shape=partialRectangle;html=1;whiteSpace=wrap;connectable=0;strokeColor=inherit;overflow=hidden;fillColor=none;top=0;left=0;bottom=0;right=0;pointerEvents=1;" vertex="1" parent="lFvNoh6wF1m9MebqzdBh-306">
          <mxGeometry x="80" width="20" height="10" as="geometry">
            <mxRectangle width="20" height="10" as="alternateBounds" />
          </mxGeometry>
        </mxCell>
        <mxCell id="lFvNoh6wF1m9MebqzdBh-312" value="" style="shape=partialRectangle;html=1;whiteSpace=wrap;connectable=0;strokeColor=inherit;overflow=hidden;fillColor=none;top=0;left=0;bottom=0;right=0;pointerEvents=1;" vertex="1" parent="lFvNoh6wF1m9MebqzdBh-306">
          <mxGeometry x="100" width="20" height="10" as="geometry">
            <mxRectangle width="20" height="10" as="alternateBounds" />
          </mxGeometry>
        </mxCell>
        <mxCell id="lFvNoh6wF1m9MebqzdBh-313" value="" style="ellipse;whiteSpace=wrap;html=1;aspect=fixed;" vertex="1" parent="lFvNoh6wF1m9MebqzdBh-321">
          <mxGeometry x="6.666666666666666" y="1.25" width="4.5" height="4.5" as="geometry" />
        </mxCell>
        <mxCell id="lFvNoh6wF1m9MebqzdBh-315" value="" style="ellipse;whiteSpace=wrap;html=1;aspect=fixed;" vertex="1" parent="lFvNoh6wF1m9MebqzdBh-321">
          <mxGeometry x="26.666666666666664" y="1.25" width="4.5" height="4.5" as="geometry" />
        </mxCell>
        <mxCell id="lFvNoh6wF1m9MebqzdBh-317" value="" style="ellipse;whiteSpace=wrap;html=1;aspect=fixed;" vertex="1" parent="lFvNoh6wF1m9MebqzdBh-321">
          <mxGeometry x="46.66666666666668" y="1.25" width="4.5" height="4.5" as="geometry" />
        </mxCell>
        <mxCell id="lFvNoh6wF1m9MebqzdBh-318" value="" style="ellipse;whiteSpace=wrap;html=1;aspect=fixed;" vertex="1" parent="lFvNoh6wF1m9MebqzdBh-321">
          <mxGeometry x="66.66666666666667" y="1.25" width="4.5" height="4.5" as="geometry" />
        </mxCell>
        <mxCell id="lFvNoh6wF1m9MebqzdBh-319" value="" style="ellipse;whiteSpace=wrap;html=1;aspect=fixed;" vertex="1" parent="lFvNoh6wF1m9MebqzdBh-321">
          <mxGeometry x="86.66666666666669" y="1.25" width="4.5" height="4.5" as="geometry" />
        </mxCell>
        <mxCell id="lFvNoh6wF1m9MebqzdBh-358" style="edgeStyle=orthogonalEdgeStyle;rounded=0;orthogonalLoop=1;jettySize=auto;html=1;exitX=0;exitY=1;exitDx=0;exitDy=0;fillColor=#e51400;strokeColor=#B20000;endArrow=none;startFill=0;strokeWidth=3;" edge="1" parent="lFvNoh6wF1m9MebqzdBh-321" source="lFvNoh6wF1m9MebqzdBh-320">
          <mxGeometry relative="1" as="geometry">
            <mxPoint x="-460" y="-150" as="targetPoint" />
            <Array as="points">
              <mxPoint x="107" y="70" />
              <mxPoint x="-460" y="70" />
            </Array>
          </mxGeometry>
        </mxCell>
        <mxCell id="lFvNoh6wF1m9MebqzdBh-320" value="" style="ellipse;whiteSpace=wrap;html=1;aspect=fixed;" vertex="1" parent="lFvNoh6wF1m9MebqzdBh-321">
          <mxGeometry x="106.66666666666666" y="1.25" width="4.5" height="4.5" as="geometry" />
        </mxCell>
        <mxCell id="lFvNoh6wF1m9MebqzdBh-326" value="" style="endArrow=none;html=1;rounded=0;strokeWidth=4;fillColor=#ffe6cc;strokeColor=#d79b00;" edge="1" parent="1">
          <mxGeometry width="50" height="50" relative="1" as="geometry">
            <mxPoint x="136.5" y="518" as="sourcePoint" />
            <mxPoint x="250" y="518" as="targetPoint" />
          </mxGeometry>
        </mxCell>
        <mxCell id="lFvNoh6wF1m9MebqzdBh-328" value="" style="endArrow=none;html=1;rounded=0;fontStyle=1;strokeWidth=4;fillColor=#dae8fc;strokeColor=#6c8ebf;" edge="1" parent="1">
          <mxGeometry width="50" height="50" relative="1" as="geometry">
            <mxPoint x="136.5" y="558" as="sourcePoint" />
            <mxPoint x="250" y="558" as="targetPoint" />
          </mxGeometry>
        </mxCell>
        <mxCell id="lFvNoh6wF1m9MebqzdBh-334" style="edgeStyle=orthogonalEdgeStyle;rounded=0;orthogonalLoop=1;jettySize=auto;html=1;exitX=1;exitY=1;exitDx=0;exitDy=0;entryX=0.665;entryY=0;entryDx=0;entryDy=0;entryPerimeter=0;endArrow=none;startFill=0;strokeWidth=3;" edge="1" parent="1" source="lFvNoh6wF1m9MebqzdBh-244" target="lFvNoh6wF1m9MebqzdBh-261">
          <mxGeometry relative="1" as="geometry">
            <mxPoint x="1050" y="1110" as="targetPoint" />
            <Array as="points">
              <mxPoint x="271" y="600" />
              <mxPoint x="430" y="600" />
              <mxPoint x="430" y="1030" />
              <mxPoint x="1420" y="1030" />
            </Array>
          </mxGeometry>
        </mxCell>
        <mxCell id="lFvNoh6wF1m9MebqzdBh-336" style="edgeStyle=orthogonalEdgeStyle;rounded=0;orthogonalLoop=1;jettySize=auto;html=1;exitX=0.665;exitY=0;exitDx=0;exitDy=0;exitPerimeter=0;endArrow=none;startFill=0;strokeWidth=3;" edge="1" parent="1" source="lFvNoh6wF1m9MebqzdBh-335">
          <mxGeometry relative="1" as="geometry">
            <mxPoint x="1138.3076923076924" y="1029.9999999999998" as="targetPoint" />
          </mxGeometry>
        </mxCell>
        <mxCell id="lFvNoh6wF1m9MebqzdBh-335" value="" style="verticalLabelPosition=bottom;aspect=fixed;html=1;verticalAlign=top;fillColor=strokeColor;align=center;outlineConnect=0;shape=mxgraph.fluid_power.x10220;points=[[0.665,0,0],[0.665,1,0],[0,0.62,0],[0.37,0.25,0],[0.37,0.75,0]]" vertex="1" parent="1">
          <mxGeometry x="960" y="1290.4" width="268.58" height="159.6" as="geometry" />
        </mxCell>
        <mxCell id="lFvNoh6wF1m9MebqzdBh-337" style="edgeStyle=orthogonalEdgeStyle;rounded=0;orthogonalLoop=1;jettySize=auto;html=1;exitX=0.5;exitY=0;exitDx=0;exitDy=0;entryX=0.665;entryY=1;entryDx=0;entryDy=0;entryPerimeter=0;endArrow=none;startFill=0;fillColor=#60a917;strokeColor=#2D7600;strokeWidth=3;" edge="1" parent="1" source="lFvNoh6wF1m9MebqzdBh-221" target="lFvNoh6wF1m9MebqzdBh-335">
          <mxGeometry relative="1" as="geometry">
            <Array as="points">
              <mxPoint x="754" y="1100" />
              <mxPoint x="910" y="1100" />
              <mxPoint x="910" y="1470" />
              <mxPoint x="1139" y="1470" />
            </Array>
          </mxGeometry>
        </mxCell>
        <mxCell id="lFvNoh6wF1m9MebqzdBh-338" style="edgeStyle=orthogonalEdgeStyle;rounded=0;orthogonalLoop=1;jettySize=auto;html=1;exitX=1;exitY=0;exitDx=0;exitDy=0;entryX=0.665;entryY=1;entryDx=0;entryDy=0;entryPerimeter=0;fillColor=#d80073;strokeColor=#A50040;strokeWidth=3;" edge="1" parent="1" source="lFvNoh6wF1m9MebqzdBh-223" target="lFvNoh6wF1m9MebqzdBh-261">
          <mxGeometry relative="1" as="geometry">
            <Array as="points">
              <mxPoint x="1230" y="1182" />
              <mxPoint x="1230" y="1470" />
              <mxPoint x="1420" y="1470" />
            </Array>
          </mxGeometry>
        </mxCell>
        <mxCell id="lFvNoh6wF1m9MebqzdBh-339" style="edgeStyle=orthogonalEdgeStyle;rounded=0;orthogonalLoop=1;jettySize=auto;html=1;exitX=0.5;exitY=0;exitDx=0;exitDy=0;entryX=0.5;entryY=0;entryDx=0;entryDy=0;endArrow=none;startFill=0;fillColor=#76608a;strokeColor=#432D57;strokeWidth=3;" edge="1" parent="1" source="lFvNoh6wF1m9MebqzdBh-245" target="lFvNoh6wF1m9MebqzdBh-292">
          <mxGeometry relative="1" as="geometry">
            <Array as="points">
              <mxPoint x="295" y="660" />
              <mxPoint x="730" y="660" />
            </Array>
          </mxGeometry>
        </mxCell>
        <mxCell id="lFvNoh6wF1m9MebqzdBh-353" style="edgeStyle=orthogonalEdgeStyle;rounded=0;orthogonalLoop=1;jettySize=auto;html=1;exitX=0;exitY=0;exitDx=0;exitDy=0;entryX=0;entryY=1;entryDx=0;entryDy=0;endArrow=none;startFill=0;strokeWidth=3;" edge="1" parent="1" source="lFvNoh6wF1m9MebqzdBh-244" target="lFvNoh6wF1m9MebqzdBh-276">
          <mxGeometry relative="1" as="geometry">
            <Array as="points">
              <mxPoint x="256" y="970" />
              <mxPoint x="60" y="970" />
              <mxPoint x="60" y="1166" />
            </Array>
          </mxGeometry>
        </mxCell>
        <mxCell id="lFvNoh6wF1m9MebqzdBh-354" style="edgeStyle=orthogonalEdgeStyle;rounded=0;orthogonalLoop=1;jettySize=auto;html=1;exitX=0;exitY=0;exitDx=0;exitDy=0;entryX=0;entryY=1;entryDx=0;entryDy=0;endArrow=none;startFill=0;fillColor=#e51400;strokeColor=#B20000;strokeWidth=3;" edge="1" parent="1" source="lFvNoh6wF1m9MebqzdBh-245" target="lFvNoh6wF1m9MebqzdBh-277">
          <mxGeometry relative="1" as="geometry">
            <Array as="points">
              <mxPoint x="400" y="710" />
              <mxPoint x="400" y="1030" />
              <mxPoint x="239" y="1030" />
            </Array>
          </mxGeometry>
        </mxCell>
        <mxCell id="lFvNoh6wF1m9MebqzdBh-96" value="" style="group" vertex="1" connectable="0" parent="1">
          <mxGeometry x="920.8333333333334" y="597.741935483871" width="352.65625" height="27.741935483870968" as="geometry" />
        </mxCell>
        <mxCell id="lFvNoh6wF1m9MebqzdBh-12" value="" style="shape=table;startSize=0;container=1;collapsible=0;childLayout=tableLayout;" vertex="1" parent="lFvNoh6wF1m9MebqzdBh-96">
          <mxGeometry width="352.65625" height="27.741935483870968" as="geometry" />
        </mxCell>
        <mxCell id="lFvNoh6wF1m9MebqzdBh-13" value="" style="shape=tableRow;horizontal=0;startSize=0;swimlaneHead=0;swimlaneBody=0;strokeColor=inherit;top=0;left=0;bottom=0;right=0;collapsible=0;dropTarget=0;fillColor=none;points=[[0,0.5],[1,0.5]];portConstraint=eastwest;" vertex="1" parent="lFvNoh6wF1m9MebqzdBh-12">
          <mxGeometry width="352.65625" height="13" as="geometry" />
        </mxCell>
        <mxCell id="lFvNoh6wF1m9MebqzdBh-14" value="" style="shape=partialRectangle;html=1;whiteSpace=wrap;connectable=0;strokeColor=inherit;overflow=hidden;fillColor=none;top=0;left=0;bottom=0;right=0;pointerEvents=1;" vertex="1" parent="lFvNoh6wF1m9MebqzdBh-13">
          <mxGeometry width="18" height="13" as="geometry">
            <mxRectangle width="18" height="13" as="alternateBounds" />
          </mxGeometry>
        </mxCell>
        <mxCell id="lFvNoh6wF1m9MebqzdBh-15" value="" style="shape=partialRectangle;html=1;whiteSpace=wrap;connectable=0;strokeColor=inherit;overflow=hidden;fillColor=none;top=0;left=0;bottom=0;right=0;pointerEvents=1;" vertex="1" parent="lFvNoh6wF1m9MebqzdBh-13">
          <mxGeometry x="18" width="17" height="13" as="geometry">
            <mxRectangle width="17" height="13" as="alternateBounds" />
          </mxGeometry>
        </mxCell>
        <mxCell id="lFvNoh6wF1m9MebqzdBh-16" value="" style="shape=partialRectangle;html=1;whiteSpace=wrap;connectable=0;strokeColor=inherit;overflow=hidden;fillColor=none;top=0;left=0;bottom=0;right=0;pointerEvents=1;" vertex="1" parent="lFvNoh6wF1m9MebqzdBh-13">
          <mxGeometry x="35" width="18" height="13" as="geometry">
            <mxRectangle width="18" height="13" as="alternateBounds" />
          </mxGeometry>
        </mxCell>
        <mxCell id="lFvNoh6wF1m9MebqzdBh-17" value="" style="shape=partialRectangle;html=1;whiteSpace=wrap;connectable=0;strokeColor=inherit;overflow=hidden;fillColor=none;top=0;left=0;bottom=0;right=0;pointerEvents=1;" vertex="1" parent="lFvNoh6wF1m9MebqzdBh-13">
          <mxGeometry x="53" width="18" height="13" as="geometry">
            <mxRectangle width="18" height="13" as="alternateBounds" />
          </mxGeometry>
        </mxCell>
        <mxCell id="lFvNoh6wF1m9MebqzdBh-18" value="" style="shape=partialRectangle;html=1;whiteSpace=wrap;connectable=0;strokeColor=inherit;overflow=hidden;fillColor=none;top=0;left=0;bottom=0;right=0;pointerEvents=1;" vertex="1" parent="lFvNoh6wF1m9MebqzdBh-13">
          <mxGeometry x="71" width="17" height="13" as="geometry">
            <mxRectangle width="17" height="13" as="alternateBounds" />
          </mxGeometry>
        </mxCell>
        <mxCell id="lFvNoh6wF1m9MebqzdBh-19" value="" style="shape=partialRectangle;html=1;whiteSpace=wrap;connectable=0;strokeColor=inherit;overflow=hidden;fillColor=none;top=0;left=0;bottom=0;right=0;pointerEvents=1;" vertex="1" parent="lFvNoh6wF1m9MebqzdBh-13">
          <mxGeometry x="88" width="18" height="13" as="geometry">
            <mxRectangle width="18" height="13" as="alternateBounds" />
          </mxGeometry>
        </mxCell>
        <mxCell id="lFvNoh6wF1m9MebqzdBh-20" value="" style="shape=partialRectangle;html=1;whiteSpace=wrap;connectable=0;strokeColor=inherit;overflow=hidden;fillColor=none;top=0;left=0;bottom=0;right=0;pointerEvents=1;" vertex="1" parent="lFvNoh6wF1m9MebqzdBh-13">
          <mxGeometry x="106" width="17" height="13" as="geometry">
            <mxRectangle width="17" height="13" as="alternateBounds" />
          </mxGeometry>
        </mxCell>
        <mxCell id="lFvNoh6wF1m9MebqzdBh-21" value="" style="shape=partialRectangle;html=1;whiteSpace=wrap;connectable=0;strokeColor=inherit;overflow=hidden;fillColor=none;top=0;left=0;bottom=0;right=0;pointerEvents=1;" vertex="1" parent="lFvNoh6wF1m9MebqzdBh-13">
          <mxGeometry x="123" width="18" height="13" as="geometry">
            <mxRectangle width="18" height="13" as="alternateBounds" />
          </mxGeometry>
        </mxCell>
        <mxCell id="lFvNoh6wF1m9MebqzdBh-22" value="" style="shape=partialRectangle;html=1;whiteSpace=wrap;connectable=0;strokeColor=inherit;overflow=hidden;fillColor=none;top=0;left=0;bottom=0;right=0;pointerEvents=1;" vertex="1" parent="lFvNoh6wF1m9MebqzdBh-13">
          <mxGeometry x="141" width="17" height="13" as="geometry">
            <mxRectangle width="17" height="13" as="alternateBounds" />
          </mxGeometry>
        </mxCell>
        <mxCell id="lFvNoh6wF1m9MebqzdBh-23" value="" style="shape=partialRectangle;html=1;whiteSpace=wrap;connectable=0;strokeColor=inherit;overflow=hidden;fillColor=none;top=0;left=0;bottom=0;right=0;pointerEvents=1;" vertex="1" parent="lFvNoh6wF1m9MebqzdBh-13">
          <mxGeometry x="158" width="18" height="13" as="geometry">
            <mxRectangle width="18" height="13" as="alternateBounds" />
          </mxGeometry>
        </mxCell>
        <mxCell id="lFvNoh6wF1m9MebqzdBh-24" value="" style="shape=partialRectangle;html=1;whiteSpace=wrap;connectable=0;strokeColor=inherit;overflow=hidden;fillColor=none;top=0;left=0;bottom=0;right=0;pointerEvents=1;" vertex="1" parent="lFvNoh6wF1m9MebqzdBh-13">
          <mxGeometry x="176" width="18" height="13" as="geometry">
            <mxRectangle width="18" height="13" as="alternateBounds" />
          </mxGeometry>
        </mxCell>
        <mxCell id="lFvNoh6wF1m9MebqzdBh-25" value="" style="shape=partialRectangle;html=1;whiteSpace=wrap;connectable=0;strokeColor=inherit;overflow=hidden;fillColor=none;top=0;left=0;bottom=0;right=0;pointerEvents=1;" vertex="1" parent="lFvNoh6wF1m9MebqzdBh-13">
          <mxGeometry x="194" width="18" height="13" as="geometry">
            <mxRectangle width="18" height="13" as="alternateBounds" />
          </mxGeometry>
        </mxCell>
        <mxCell id="lFvNoh6wF1m9MebqzdBh-26" value="" style="shape=partialRectangle;html=1;whiteSpace=wrap;connectable=0;strokeColor=inherit;overflow=hidden;fillColor=none;top=0;left=0;bottom=0;right=0;pointerEvents=1;" vertex="1" parent="lFvNoh6wF1m9MebqzdBh-13">
          <mxGeometry x="212" width="17" height="13" as="geometry">
            <mxRectangle width="17" height="13" as="alternateBounds" />
          </mxGeometry>
        </mxCell>
        <mxCell id="lFvNoh6wF1m9MebqzdBh-27" value="" style="shape=partialRectangle;html=1;whiteSpace=wrap;connectable=0;strokeColor=inherit;overflow=hidden;fillColor=none;top=0;left=0;bottom=0;right=0;pointerEvents=1;" vertex="1" parent="lFvNoh6wF1m9MebqzdBh-13">
          <mxGeometry x="229" width="18" height="13" as="geometry">
            <mxRectangle width="18" height="13" as="alternateBounds" />
          </mxGeometry>
        </mxCell>
        <mxCell id="lFvNoh6wF1m9MebqzdBh-28" value="" style="shape=partialRectangle;html=1;whiteSpace=wrap;connectable=0;strokeColor=inherit;overflow=hidden;fillColor=none;top=0;left=0;bottom=0;right=0;pointerEvents=1;" vertex="1" parent="lFvNoh6wF1m9MebqzdBh-13">
          <mxGeometry x="247" width="17" height="13" as="geometry">
            <mxRectangle width="17" height="13" as="alternateBounds" />
          </mxGeometry>
        </mxCell>
        <mxCell id="lFvNoh6wF1m9MebqzdBh-29" value="" style="shape=partialRectangle;html=1;whiteSpace=wrap;connectable=0;strokeColor=inherit;overflow=hidden;fillColor=none;top=0;left=0;bottom=0;right=0;pointerEvents=1;" vertex="1" parent="lFvNoh6wF1m9MebqzdBh-13">
          <mxGeometry x="264" width="18" height="13" as="geometry">
            <mxRectangle width="18" height="13" as="alternateBounds" />
          </mxGeometry>
        </mxCell>
        <mxCell id="lFvNoh6wF1m9MebqzdBh-30" value="" style="shape=partialRectangle;html=1;whiteSpace=wrap;connectable=0;strokeColor=inherit;overflow=hidden;fillColor=none;top=0;left=0;bottom=0;right=0;pointerEvents=1;" vertex="1" parent="lFvNoh6wF1m9MebqzdBh-13">
          <mxGeometry x="282" width="17" height="13" as="geometry">
            <mxRectangle width="17" height="13" as="alternateBounds" />
          </mxGeometry>
        </mxCell>
        <mxCell id="lFvNoh6wF1m9MebqzdBh-31" value="" style="shape=partialRectangle;html=1;whiteSpace=wrap;connectable=0;strokeColor=inherit;overflow=hidden;fillColor=none;top=0;left=0;bottom=0;right=0;pointerEvents=1;" vertex="1" parent="lFvNoh6wF1m9MebqzdBh-13">
          <mxGeometry x="299" width="18" height="13" as="geometry">
            <mxRectangle width="18" height="13" as="alternateBounds" />
          </mxGeometry>
        </mxCell>
        <mxCell id="lFvNoh6wF1m9MebqzdBh-32" value="" style="shape=partialRectangle;html=1;whiteSpace=wrap;connectable=0;strokeColor=inherit;overflow=hidden;fillColor=none;top=0;left=0;bottom=0;right=0;pointerEvents=1;" vertex="1" parent="lFvNoh6wF1m9MebqzdBh-13">
          <mxGeometry x="317" width="18" height="13" as="geometry">
            <mxRectangle width="18" height="13" as="alternateBounds" />
          </mxGeometry>
        </mxCell>
        <mxCell id="lFvNoh6wF1m9MebqzdBh-33" value="" style="shape=partialRectangle;html=1;whiteSpace=wrap;connectable=0;strokeColor=inherit;overflow=hidden;fillColor=none;top=0;left=0;bottom=0;right=0;pointerEvents=1;" vertex="1" parent="lFvNoh6wF1m9MebqzdBh-13">
          <mxGeometry x="335" width="18" height="13" as="geometry">
            <mxRectangle width="18" height="13" as="alternateBounds" />
          </mxGeometry>
        </mxCell>
        <mxCell id="lFvNoh6wF1m9MebqzdBh-34" value="" style="shape=tableRow;horizontal=0;startSize=0;swimlaneHead=0;swimlaneBody=0;strokeColor=inherit;top=0;left=0;bottom=0;right=0;collapsible=0;dropTarget=0;fillColor=none;points=[[0,0.5],[1,0.5]];portConstraint=eastwest;" vertex="1" parent="lFvNoh6wF1m9MebqzdBh-12">
          <mxGeometry y="13" width="352.65625" height="15" as="geometry" />
        </mxCell>
        <mxCell id="lFvNoh6wF1m9MebqzdBh-35" value="" style="shape=partialRectangle;html=1;whiteSpace=wrap;connectable=0;strokeColor=inherit;overflow=hidden;fillColor=none;top=0;left=0;bottom=0;right=0;pointerEvents=1;" vertex="1" parent="lFvNoh6wF1m9MebqzdBh-34">
          <mxGeometry width="18" height="15" as="geometry">
            <mxRectangle width="18" height="15" as="alternateBounds" />
          </mxGeometry>
        </mxCell>
        <mxCell id="lFvNoh6wF1m9MebqzdBh-36" value="" style="shape=partialRectangle;html=1;whiteSpace=wrap;connectable=0;strokeColor=inherit;overflow=hidden;fillColor=none;top=0;left=0;bottom=0;right=0;pointerEvents=1;" vertex="1" parent="lFvNoh6wF1m9MebqzdBh-34">
          <mxGeometry x="18" width="17" height="15" as="geometry">
            <mxRectangle width="17" height="15" as="alternateBounds" />
          </mxGeometry>
        </mxCell>
        <mxCell id="lFvNoh6wF1m9MebqzdBh-37" value="" style="shape=partialRectangle;html=1;whiteSpace=wrap;connectable=0;strokeColor=inherit;overflow=hidden;fillColor=none;top=0;left=0;bottom=0;right=0;pointerEvents=1;" vertex="1" parent="lFvNoh6wF1m9MebqzdBh-34">
          <mxGeometry x="35" width="18" height="15" as="geometry">
            <mxRectangle width="18" height="15" as="alternateBounds" />
          </mxGeometry>
        </mxCell>
        <mxCell id="lFvNoh6wF1m9MebqzdBh-38" value="" style="shape=partialRectangle;html=1;whiteSpace=wrap;connectable=0;strokeColor=inherit;overflow=hidden;fillColor=none;top=0;left=0;bottom=0;right=0;pointerEvents=1;" vertex="1" parent="lFvNoh6wF1m9MebqzdBh-34">
          <mxGeometry x="53" width="18" height="15" as="geometry">
            <mxRectangle width="18" height="15" as="alternateBounds" />
          </mxGeometry>
        </mxCell>
        <mxCell id="lFvNoh6wF1m9MebqzdBh-39" value="" style="shape=partialRectangle;html=1;whiteSpace=wrap;connectable=0;strokeColor=inherit;overflow=hidden;fillColor=none;top=0;left=0;bottom=0;right=0;pointerEvents=1;" vertex="1" parent="lFvNoh6wF1m9MebqzdBh-34">
          <mxGeometry x="71" width="17" height="15" as="geometry">
            <mxRectangle width="17" height="15" as="alternateBounds" />
          </mxGeometry>
        </mxCell>
        <mxCell id="lFvNoh6wF1m9MebqzdBh-40" value="" style="shape=partialRectangle;html=1;whiteSpace=wrap;connectable=0;strokeColor=inherit;overflow=hidden;fillColor=none;top=0;left=0;bottom=0;right=0;pointerEvents=1;" vertex="1" parent="lFvNoh6wF1m9MebqzdBh-34">
          <mxGeometry x="88" width="18" height="15" as="geometry">
            <mxRectangle width="18" height="15" as="alternateBounds" />
          </mxGeometry>
        </mxCell>
        <mxCell id="lFvNoh6wF1m9MebqzdBh-41" value="" style="shape=partialRectangle;html=1;whiteSpace=wrap;connectable=0;strokeColor=inherit;overflow=hidden;fillColor=none;top=0;left=0;bottom=0;right=0;pointerEvents=1;" vertex="1" parent="lFvNoh6wF1m9MebqzdBh-34">
          <mxGeometry x="106" width="17" height="15" as="geometry">
            <mxRectangle width="17" height="15" as="alternateBounds" />
          </mxGeometry>
        </mxCell>
        <mxCell id="lFvNoh6wF1m9MebqzdBh-42" value="" style="shape=partialRectangle;html=1;whiteSpace=wrap;connectable=0;strokeColor=inherit;overflow=hidden;fillColor=none;top=0;left=0;bottom=0;right=0;pointerEvents=1;" vertex="1" parent="lFvNoh6wF1m9MebqzdBh-34">
          <mxGeometry x="123" width="18" height="15" as="geometry">
            <mxRectangle width="18" height="15" as="alternateBounds" />
          </mxGeometry>
        </mxCell>
        <mxCell id="lFvNoh6wF1m9MebqzdBh-43" value="" style="shape=partialRectangle;html=1;whiteSpace=wrap;connectable=0;strokeColor=inherit;overflow=hidden;fillColor=none;top=0;left=0;bottom=0;right=0;pointerEvents=1;" vertex="1" parent="lFvNoh6wF1m9MebqzdBh-34">
          <mxGeometry x="141" width="17" height="15" as="geometry">
            <mxRectangle width="17" height="15" as="alternateBounds" />
          </mxGeometry>
        </mxCell>
        <mxCell id="lFvNoh6wF1m9MebqzdBh-44" value="" style="shape=partialRectangle;html=1;whiteSpace=wrap;connectable=0;strokeColor=inherit;overflow=hidden;fillColor=none;top=0;left=0;bottom=0;right=0;pointerEvents=1;" vertex="1" parent="lFvNoh6wF1m9MebqzdBh-34">
          <mxGeometry x="158" width="18" height="15" as="geometry">
            <mxRectangle width="18" height="15" as="alternateBounds" />
          </mxGeometry>
        </mxCell>
        <mxCell id="lFvNoh6wF1m9MebqzdBh-45" value="" style="shape=partialRectangle;html=1;whiteSpace=wrap;connectable=0;strokeColor=inherit;overflow=hidden;fillColor=none;top=0;left=0;bottom=0;right=0;pointerEvents=1;" vertex="1" parent="lFvNoh6wF1m9MebqzdBh-34">
          <mxGeometry x="176" width="18" height="15" as="geometry">
            <mxRectangle width="18" height="15" as="alternateBounds" />
          </mxGeometry>
        </mxCell>
        <mxCell id="lFvNoh6wF1m9MebqzdBh-46" value="" style="shape=partialRectangle;html=1;whiteSpace=wrap;connectable=0;strokeColor=inherit;overflow=hidden;fillColor=none;top=0;left=0;bottom=0;right=0;pointerEvents=1;" vertex="1" parent="lFvNoh6wF1m9MebqzdBh-34">
          <mxGeometry x="194" width="18" height="15" as="geometry">
            <mxRectangle width="18" height="15" as="alternateBounds" />
          </mxGeometry>
        </mxCell>
        <mxCell id="lFvNoh6wF1m9MebqzdBh-47" value="" style="shape=partialRectangle;html=1;whiteSpace=wrap;connectable=0;strokeColor=inherit;overflow=hidden;fillColor=none;top=0;left=0;bottom=0;right=0;pointerEvents=1;" vertex="1" parent="lFvNoh6wF1m9MebqzdBh-34">
          <mxGeometry x="212" width="17" height="15" as="geometry">
            <mxRectangle width="17" height="15" as="alternateBounds" />
          </mxGeometry>
        </mxCell>
        <mxCell id="lFvNoh6wF1m9MebqzdBh-48" value="" style="shape=partialRectangle;html=1;whiteSpace=wrap;connectable=0;strokeColor=inherit;overflow=hidden;fillColor=none;top=0;left=0;bottom=0;right=0;pointerEvents=1;" vertex="1" parent="lFvNoh6wF1m9MebqzdBh-34">
          <mxGeometry x="229" width="18" height="15" as="geometry">
            <mxRectangle width="18" height="15" as="alternateBounds" />
          </mxGeometry>
        </mxCell>
        <mxCell id="lFvNoh6wF1m9MebqzdBh-49" value="" style="shape=partialRectangle;html=1;whiteSpace=wrap;connectable=0;strokeColor=inherit;overflow=hidden;fillColor=none;top=0;left=0;bottom=0;right=0;pointerEvents=1;" vertex="1" parent="lFvNoh6wF1m9MebqzdBh-34">
          <mxGeometry x="247" width="17" height="15" as="geometry">
            <mxRectangle width="17" height="15" as="alternateBounds" />
          </mxGeometry>
        </mxCell>
        <mxCell id="lFvNoh6wF1m9MebqzdBh-50" value="" style="shape=partialRectangle;html=1;whiteSpace=wrap;connectable=0;strokeColor=inherit;overflow=hidden;fillColor=none;top=0;left=0;bottom=0;right=0;pointerEvents=1;" vertex="1" parent="lFvNoh6wF1m9MebqzdBh-34">
          <mxGeometry x="264" width="18" height="15" as="geometry">
            <mxRectangle width="18" height="15" as="alternateBounds" />
          </mxGeometry>
        </mxCell>
        <mxCell id="lFvNoh6wF1m9MebqzdBh-51" value="" style="shape=partialRectangle;html=1;whiteSpace=wrap;connectable=0;strokeColor=inherit;overflow=hidden;fillColor=none;top=0;left=0;bottom=0;right=0;pointerEvents=1;" vertex="1" parent="lFvNoh6wF1m9MebqzdBh-34">
          <mxGeometry x="282" width="17" height="15" as="geometry">
            <mxRectangle width="17" height="15" as="alternateBounds" />
          </mxGeometry>
        </mxCell>
        <mxCell id="lFvNoh6wF1m9MebqzdBh-52" value="" style="shape=partialRectangle;html=1;whiteSpace=wrap;connectable=0;strokeColor=inherit;overflow=hidden;fillColor=none;top=0;left=0;bottom=0;right=0;pointerEvents=1;" vertex="1" parent="lFvNoh6wF1m9MebqzdBh-34">
          <mxGeometry x="299" width="18" height="15" as="geometry">
            <mxRectangle width="18" height="15" as="alternateBounds" />
          </mxGeometry>
        </mxCell>
        <mxCell id="lFvNoh6wF1m9MebqzdBh-53" value="" style="shape=partialRectangle;html=1;whiteSpace=wrap;connectable=0;strokeColor=inherit;overflow=hidden;fillColor=none;top=0;left=0;bottom=0;right=0;pointerEvents=1;" vertex="1" parent="lFvNoh6wF1m9MebqzdBh-34">
          <mxGeometry x="317" width="18" height="15" as="geometry">
            <mxRectangle width="18" height="15" as="alternateBounds" />
          </mxGeometry>
        </mxCell>
        <mxCell id="lFvNoh6wF1m9MebqzdBh-54" value="" style="shape=partialRectangle;html=1;whiteSpace=wrap;connectable=0;strokeColor=inherit;overflow=hidden;fillColor=none;top=0;left=0;bottom=0;right=0;pointerEvents=1;" vertex="1" parent="lFvNoh6wF1m9MebqzdBh-34">
          <mxGeometry x="335" width="18" height="15" as="geometry">
            <mxRectangle width="18" height="15" as="alternateBounds" />
          </mxGeometry>
        </mxCell>
        <mxCell id="lFvNoh6wF1m9MebqzdBh-55" value="" style="ellipse;whiteSpace=wrap;html=1;aspect=fixed;" vertex="1" parent="lFvNoh6wF1m9MebqzdBh-96">
          <mxGeometry x="2.9388020833333335" width="9.429824561403509" height="9.429824561403509" as="geometry" />
        </mxCell>
        <mxCell id="lFvNoh6wF1m9MebqzdBh-56" value="" style="ellipse;whiteSpace=wrap;html=1;aspect=fixed;" vertex="1" parent="lFvNoh6wF1m9MebqzdBh-96">
          <mxGeometry x="20.571614583333332" width="9.429824561403509" height="9.429824561403509" as="geometry" />
        </mxCell>
        <mxCell id="lFvNoh6wF1m9MebqzdBh-360" style="edgeStyle=orthogonalEdgeStyle;rounded=0;orthogonalLoop=1;jettySize=auto;html=1;exitX=0.5;exitY=0;exitDx=0;exitDy=0;endArrow=none;startFill=0;strokeWidth=3;" edge="1" parent="lFvNoh6wF1m9MebqzdBh-96" source="lFvNoh6wF1m9MebqzdBh-57">
          <mxGeometry relative="1" as="geometry">
            <mxPoint x="-563.7745098039215" y="832.258064516129" as="targetPoint" />
            <Array as="points">
              <mxPoint x="43" y="-158" />
              <mxPoint x="-461" y="-158" />
              <mxPoint x="-461" y="832" />
            </Array>
          </mxGeometry>
        </mxCell>
        <mxCell id="lFvNoh6wF1m9MebqzdBh-57" value="" style="ellipse;whiteSpace=wrap;html=1;aspect=fixed;" vertex="1" parent="lFvNoh6wF1m9MebqzdBh-96">
          <mxGeometry x="38.204427083333336" width="9.429824561403509" height="9.429824561403509" as="geometry" />
        </mxCell>
        <mxCell id="lFvNoh6wF1m9MebqzdBh-58" value="" style="ellipse;whiteSpace=wrap;html=1;aspect=fixed;" vertex="1" parent="lFvNoh6wF1m9MebqzdBh-96">
          <mxGeometry x="55.837239583333336" width="9.429824561403509" height="9.429824561403509" as="geometry" />
        </mxCell>
        <mxCell id="lFvNoh6wF1m9MebqzdBh-59" value="" style="ellipse;whiteSpace=wrap;html=1;aspect=fixed;" vertex="1" parent="lFvNoh6wF1m9MebqzdBh-96">
          <mxGeometry x="73.47005208333333" width="9.429824561403509" height="9.429824561403509" as="geometry" />
        </mxCell>
        <mxCell id="lFvNoh6wF1m9MebqzdBh-60" value="" style="ellipse;whiteSpace=wrap;html=1;aspect=fixed;" vertex="1" parent="lFvNoh6wF1m9MebqzdBh-96">
          <mxGeometry x="91.10286458333333" width="9.429824561403509" height="9.429824561403509" as="geometry" />
        </mxCell>
        <mxCell id="lFvNoh6wF1m9MebqzdBh-61" value="" style="ellipse;whiteSpace=wrap;html=1;aspect=fixed;" vertex="1" parent="lFvNoh6wF1m9MebqzdBh-96">
          <mxGeometry x="108.73567708333334" width="9.429824561403509" height="9.429824561403509" as="geometry" />
        </mxCell>
        <mxCell id="lFvNoh6wF1m9MebqzdBh-63" value="" style="ellipse;whiteSpace=wrap;html=1;aspect=fixed;" vertex="1" parent="lFvNoh6wF1m9MebqzdBh-96">
          <mxGeometry x="126.36848958333334" width="9.429824561403509" height="9.429824561403509" as="geometry" />
        </mxCell>
        <mxCell id="lFvNoh6wF1m9MebqzdBh-64" value="" style="ellipse;whiteSpace=wrap;html=1;aspect=fixed;" vertex="1" parent="lFvNoh6wF1m9MebqzdBh-96">
          <mxGeometry x="144.00130208333334" width="9.429824561403509" height="9.429824561403509" as="geometry" />
        </mxCell>
        <mxCell id="lFvNoh6wF1m9MebqzdBh-65" value="" style="ellipse;whiteSpace=wrap;html=1;aspect=fixed;" vertex="1" parent="lFvNoh6wF1m9MebqzdBh-96">
          <mxGeometry x="161.63411458333334" width="9.429824561403509" height="9.429824561403509" as="geometry" />
        </mxCell>
        <mxCell id="lFvNoh6wF1m9MebqzdBh-66" value="" style="ellipse;whiteSpace=wrap;html=1;aspect=fixed;" vertex="1" parent="lFvNoh6wF1m9MebqzdBh-96">
          <mxGeometry x="179.26692708333334" width="9.429824561403509" height="9.429824561403509" as="geometry" />
        </mxCell>
        <mxCell id="lFvNoh6wF1m9MebqzdBh-67" value="" style="ellipse;whiteSpace=wrap;html=1;aspect=fixed;" vertex="1" parent="lFvNoh6wF1m9MebqzdBh-96">
          <mxGeometry x="196.89973958333334" width="9.429824561403509" height="9.429824561403509" as="geometry" />
        </mxCell>
        <mxCell id="lFvNoh6wF1m9MebqzdBh-68" value="" style="ellipse;whiteSpace=wrap;html=1;aspect=fixed;" vertex="1" parent="lFvNoh6wF1m9MebqzdBh-96">
          <mxGeometry x="214.53255208333334" width="9.429824561403509" height="9.429824561403509" as="geometry" />
        </mxCell>
        <mxCell id="lFvNoh6wF1m9MebqzdBh-69" value="" style="ellipse;whiteSpace=wrap;html=1;aspect=fixed;" vertex="1" parent="lFvNoh6wF1m9MebqzdBh-96">
          <mxGeometry x="232.16536458333334" width="9.429824561403509" height="9.429824561403509" as="geometry" />
        </mxCell>
        <mxCell id="lFvNoh6wF1m9MebqzdBh-70" value="" style="ellipse;whiteSpace=wrap;html=1;aspect=fixed;" vertex="1" parent="lFvNoh6wF1m9MebqzdBh-96">
          <mxGeometry x="249.79817708333334" width="9.429824561403509" height="9.429824561403509" as="geometry" />
        </mxCell>
        <mxCell id="lFvNoh6wF1m9MebqzdBh-71" value="" style="ellipse;whiteSpace=wrap;html=1;aspect=fixed;" vertex="1" parent="lFvNoh6wF1m9MebqzdBh-96">
          <mxGeometry x="267.4309895833333" width="9.429824561403509" height="9.429824561403509" as="geometry" />
        </mxCell>
        <mxCell id="lFvNoh6wF1m9MebqzdBh-72" value="" style="ellipse;whiteSpace=wrap;html=1;aspect=fixed;" vertex="1" parent="lFvNoh6wF1m9MebqzdBh-96">
          <mxGeometry x="285.0638020833333" width="9.429824561403509" height="9.429824561403509" as="geometry" />
        </mxCell>
        <mxCell id="lFvNoh6wF1m9MebqzdBh-73" value="" style="ellipse;whiteSpace=wrap;html=1;aspect=fixed;" vertex="1" parent="lFvNoh6wF1m9MebqzdBh-96">
          <mxGeometry x="302.6966145833333" width="9.429824561403509" height="9.429824561403509" as="geometry" />
        </mxCell>
        <mxCell id="lFvNoh6wF1m9MebqzdBh-74" value="" style="ellipse;whiteSpace=wrap;html=1;aspect=fixed;" vertex="1" parent="lFvNoh6wF1m9MebqzdBh-96">
          <mxGeometry x="320.3294270833333" width="9.429824561403509" height="9.429824561403509" as="geometry" />
        </mxCell>
        <mxCell id="lFvNoh6wF1m9MebqzdBh-75" value="" style="ellipse;whiteSpace=wrap;html=1;aspect=fixed;" vertex="1" parent="lFvNoh6wF1m9MebqzdBh-96">
          <mxGeometry x="337.9622395833333" width="9.429824561403509" height="9.429824561403509" as="geometry" />
        </mxCell>
        <mxCell id="lFvNoh6wF1m9MebqzdBh-76" value="" style="ellipse;whiteSpace=wrap;html=1;aspect=fixed;" vertex="1" parent="lFvNoh6wF1m9MebqzdBh-96">
          <mxGeometry x="337.9622395833333" y="13.870967741935484" width="9.429824561403509" height="9.429824561403509" as="geometry" />
        </mxCell>
        <mxCell id="lFvNoh6wF1m9MebqzdBh-77" value="" style="ellipse;whiteSpace=wrap;html=1;aspect=fixed;" vertex="1" parent="lFvNoh6wF1m9MebqzdBh-96">
          <mxGeometry x="320.3294270833333" y="13.870967741935484" width="9.429824561403509" height="9.429824561403509" as="geometry" />
        </mxCell>
        <mxCell id="lFvNoh6wF1m9MebqzdBh-78" value="" style="ellipse;whiteSpace=wrap;html=1;aspect=fixed;" vertex="1" parent="lFvNoh6wF1m9MebqzdBh-96">
          <mxGeometry x="302.6966145833333" y="13.870967741935484" width="9.429824561403509" height="9.429824561403509" as="geometry" />
        </mxCell>
        <mxCell id="lFvNoh6wF1m9MebqzdBh-79" value="" style="ellipse;whiteSpace=wrap;html=1;aspect=fixed;" vertex="1" parent="lFvNoh6wF1m9MebqzdBh-96">
          <mxGeometry x="285.0638020833333" y="13.870967741935484" width="9.429824561403509" height="9.429824561403509" as="geometry" />
        </mxCell>
        <mxCell id="lFvNoh6wF1m9MebqzdBh-80" value="" style="ellipse;whiteSpace=wrap;html=1;aspect=fixed;" vertex="1" parent="lFvNoh6wF1m9MebqzdBh-96">
          <mxGeometry x="267.4309895833333" y="13.870967741935484" width="9.429824561403509" height="9.429824561403509" as="geometry" />
        </mxCell>
        <mxCell id="lFvNoh6wF1m9MebqzdBh-81" value="" style="ellipse;whiteSpace=wrap;html=1;aspect=fixed;" vertex="1" parent="lFvNoh6wF1m9MebqzdBh-96">
          <mxGeometry x="249.79817708333334" y="13.870967741935484" width="9.429824561403509" height="9.429824561403509" as="geometry" />
        </mxCell>
        <mxCell id="lFvNoh6wF1m9MebqzdBh-82" value="" style="ellipse;whiteSpace=wrap;html=1;aspect=fixed;" vertex="1" parent="lFvNoh6wF1m9MebqzdBh-96">
          <mxGeometry x="232.16536458333334" y="13.870967741935484" width="9.429824561403509" height="9.429824561403509" as="geometry" />
        </mxCell>
        <mxCell id="lFvNoh6wF1m9MebqzdBh-83" value="" style="ellipse;whiteSpace=wrap;html=1;aspect=fixed;" vertex="1" parent="lFvNoh6wF1m9MebqzdBh-96">
          <mxGeometry x="214.53255208333334" y="13.870967741935484" width="9.429824561403509" height="9.429824561403509" as="geometry" />
        </mxCell>
        <mxCell id="lFvNoh6wF1m9MebqzdBh-84" value="" style="ellipse;whiteSpace=wrap;html=1;aspect=fixed;" vertex="1" parent="lFvNoh6wF1m9MebqzdBh-96">
          <mxGeometry x="196.89973958333334" y="13.870967741935484" width="9.429824561403509" height="9.429824561403509" as="geometry" />
        </mxCell>
        <mxCell id="lFvNoh6wF1m9MebqzdBh-85" value="" style="ellipse;whiteSpace=wrap;html=1;aspect=fixed;" vertex="1" parent="lFvNoh6wF1m9MebqzdBh-96">
          <mxGeometry x="179.26692708333334" y="13.870967741935484" width="9.429824561403509" height="9.429824561403509" as="geometry" />
        </mxCell>
        <mxCell id="lFvNoh6wF1m9MebqzdBh-86" value="" style="ellipse;whiteSpace=wrap;html=1;aspect=fixed;" vertex="1" parent="lFvNoh6wF1m9MebqzdBh-96">
          <mxGeometry x="161.63411458333334" y="13.870967741935484" width="9.429824561403509" height="9.429824561403509" as="geometry" />
        </mxCell>
        <mxCell id="lFvNoh6wF1m9MebqzdBh-87" value="" style="ellipse;whiteSpace=wrap;html=1;aspect=fixed;" vertex="1" parent="lFvNoh6wF1m9MebqzdBh-96">
          <mxGeometry x="144.00130208333334" y="13.870967741935484" width="9.429824561403509" height="9.429824561403509" as="geometry" />
        </mxCell>
        <mxCell id="lFvNoh6wF1m9MebqzdBh-88" value="" style="ellipse;whiteSpace=wrap;html=1;aspect=fixed;" vertex="1" parent="lFvNoh6wF1m9MebqzdBh-96">
          <mxGeometry x="126.36848958333334" y="13.870967741935484" width="9.429824561403509" height="9.429824561403509" as="geometry" />
        </mxCell>
        <mxCell id="lFvNoh6wF1m9MebqzdBh-89" value="" style="ellipse;whiteSpace=wrap;html=1;aspect=fixed;" vertex="1" parent="lFvNoh6wF1m9MebqzdBh-96">
          <mxGeometry x="108.73567708333334" y="13.870967741935484" width="9.429824561403509" height="9.429824561403509" as="geometry" />
        </mxCell>
        <mxCell id="lFvNoh6wF1m9MebqzdBh-90" value="" style="ellipse;whiteSpace=wrap;html=1;aspect=fixed;" vertex="1" parent="lFvNoh6wF1m9MebqzdBh-96">
          <mxGeometry x="91.10286458333333" y="13.870967741935484" width="9.429824561403509" height="9.429824561403509" as="geometry" />
        </mxCell>
        <mxCell id="lFvNoh6wF1m9MebqzdBh-91" value="" style="ellipse;whiteSpace=wrap;html=1;aspect=fixed;" vertex="1" parent="lFvNoh6wF1m9MebqzdBh-96">
          <mxGeometry x="73.47005208333333" y="13.870967741935484" width="9.429824561403509" height="9.429824561403509" as="geometry" />
        </mxCell>
        <mxCell id="lFvNoh6wF1m9MebqzdBh-92" value="" style="ellipse;whiteSpace=wrap;html=1;aspect=fixed;" vertex="1" parent="lFvNoh6wF1m9MebqzdBh-96">
          <mxGeometry x="55.837239583333336" y="13.870967741935484" width="9.429824561403509" height="9.429824561403509" as="geometry" />
        </mxCell>
        <mxCell id="lFvNoh6wF1m9MebqzdBh-93" value="" style="ellipse;whiteSpace=wrap;html=1;aspect=fixed;" vertex="1" parent="lFvNoh6wF1m9MebqzdBh-96">
          <mxGeometry x="38.204427083333336" y="13.870967741935484" width="9.429824561403509" height="9.429824561403509" as="geometry" />
        </mxCell>
        <mxCell id="lFvNoh6wF1m9MebqzdBh-94" value="" style="ellipse;whiteSpace=wrap;html=1;aspect=fixed;" vertex="1" parent="lFvNoh6wF1m9MebqzdBh-96">
          <mxGeometry x="20.571614583333332" y="13.870967741935484" width="9.429824561403509" height="9.429824561403509" as="geometry" />
        </mxCell>
        <mxCell id="lFvNoh6wF1m9MebqzdBh-95" value="" style="ellipse;whiteSpace=wrap;html=1;aspect=fixed;" vertex="1" parent="lFvNoh6wF1m9MebqzdBh-96">
          <mxGeometry x="2.9388020833333335" y="13.870967741935484" width="9.429824561403509" height="9.429824561403509" as="geometry" />
        </mxCell>
        <mxCell id="lFvNoh6wF1m9MebqzdBh-98" value="" style="rounded=1;whiteSpace=wrap;html=1;fillColor=none;movable=1;resizable=1;rotatable=1;deletable=1;editable=1;locked=0;connectable=1;" vertex="1" parent="1">
          <mxGeometry x="850" y="585" width="575.0520833333334" height="430" as="geometry" />
        </mxCell>
        <mxCell id="lFvNoh6wF1m9MebqzdBh-103" value="" style="group" vertex="1" connectable="0" parent="1">
          <mxGeometry x="1292.5520833333335" y="930.6451612903226" width="19.0625" height="27.741935483870968" as="geometry" />
        </mxCell>
        <mxCell id="lFvNoh6wF1m9MebqzdBh-101" value="" style="ellipse;whiteSpace=wrap;html=1;aspect=fixed;" vertex="1" parent="lFvNoh6wF1m9MebqzdBh-103">
          <mxGeometry width="18.859649122807017" height="18.859649122807017" as="geometry" />
        </mxCell>
        <mxCell id="lFvNoh6wF1m9MebqzdBh-102" value="" style="ellipse;whiteSpace=wrap;html=1;aspect=fixed;" vertex="1" parent="lFvNoh6wF1m9MebqzdBh-103">
          <mxGeometry x="2.3828125" y="2.3587945670628185" width="14.144736842105264" height="14.144736842105264" as="geometry" />
        </mxCell>
        <mxCell id="lFvNoh6wF1m9MebqzdBh-104" value="" style="group" vertex="1" connectable="0" parent="1">
          <mxGeometry x="892.2395833333334" y="930.6451612903226" width="19.0625" height="27.741935483870968" as="geometry" />
        </mxCell>
        <mxCell id="lFvNoh6wF1m9MebqzdBh-105" value="" style="ellipse;whiteSpace=wrap;html=1;aspect=fixed;" vertex="1" parent="lFvNoh6wF1m9MebqzdBh-104">
          <mxGeometry width="18.859649122807017" height="18.859649122807017" as="geometry" />
        </mxCell>
        <mxCell id="lFvNoh6wF1m9MebqzdBh-106" value="" style="ellipse;whiteSpace=wrap;html=1;aspect=fixed;" vertex="1" parent="lFvNoh6wF1m9MebqzdBh-104">
          <mxGeometry x="2.3828125" y="2.3587945670628185" width="14.144736842105264" height="14.144736842105264" as="geometry" />
        </mxCell>
        <mxCell id="lFvNoh6wF1m9MebqzdBh-107" value="" style="group" vertex="1" connectable="0" parent="1">
          <mxGeometry x="1292.5520833333335" y="597.741935483871" width="19.0625" height="27.741935483870968" as="geometry" />
        </mxCell>
        <mxCell id="lFvNoh6wF1m9MebqzdBh-108" value="" style="ellipse;whiteSpace=wrap;html=1;aspect=fixed;" vertex="1" parent="lFvNoh6wF1m9MebqzdBh-107">
          <mxGeometry width="18.859649122807017" height="18.859649122807017" as="geometry" />
        </mxCell>
        <mxCell id="lFvNoh6wF1m9MebqzdBh-109" value="" style="ellipse;whiteSpace=wrap;html=1;aspect=fixed;" vertex="1" parent="lFvNoh6wF1m9MebqzdBh-107">
          <mxGeometry x="2.3828125" y="2.3587945670628185" width="14.144736842105264" height="14.144736842105264" as="geometry" />
        </mxCell>
        <mxCell id="lFvNoh6wF1m9MebqzdBh-126" value="" style="rounded=0;whiteSpace=wrap;html=1;" vertex="1" parent="1">
          <mxGeometry x="1352.9166666666667" y="625.483870967742" width="127.08333333333334" height="106.34408602150538" as="geometry" />
        </mxCell>
        <mxCell id="lFvNoh6wF1m9MebqzdBh-127" value="" style="rounded=0;whiteSpace=wrap;html=1;" vertex="1" parent="1">
          <mxGeometry x="1352.9166666666667" y="750.3225806451612" width="114.375" height="85.53763440860216" as="geometry" />
        </mxCell>
        <mxCell id="lFvNoh6wF1m9MebqzdBh-128" value="" style="rounded=0;whiteSpace=wrap;html=1;" vertex="1" parent="1">
          <mxGeometry x="1352.9166666666667" y="856.6666666666667" width="114.375" height="85.53763440860216" as="geometry" />
        </mxCell>
        <mxCell id="lFvNoh6wF1m9MebqzdBh-130" value="" style="shape=image;verticalLabelPosition=bottom;labelBackgroundColor=default;verticalAlign=top;aspect=fixed;imageAspect=0;image=data:image/png,iVBORw0KGgoAAAANSUhEUgAAAH0AAACgCAYAAAAhIGPUAAAgAElEQVR4Xu3dA5Q0SdYG4Jx/bdu2bdu2MWvbmvXO2rY9q1nbxuzO2rb9z5Nn3z73i8msyqyqHn55Tp/ursrKiLh8LyJql7/+9a//7XZeBysK7LKT6QcrfveL3cn0gx/PdzL9YMjznUzfyfSDIwUOhmve6dN3Mv1gSIGD4ZJ3avpOpm8/Bf773/92u+yyS/ef//xnh8H+7//+r3/Nj7/9uLePK/e5f+e1OQpsq6aHwWFeGPivf/1ri7FZyj/+8Y/uUIc61JZA/Pvf/+4OcYhD7MD8dtn7pzAMrS3zI7jmX4X2kIc8ZP9/Xo9gW+N+LdzbxvRKlGg1Jlk05v7zn//sfve73/ULPsxhDtMd5ShH6f70pz91n/3sZ7vzn//8/T0uAuJzfkIcBKv/79fMH1ub+VorBk+90CNryTrr/1OfM+e+tZheJbRqczQ6xKkagGFPfepTu5e+9KXd3//+956RiHTsYx+7Z/A3vvGN7njHO1533vOet7vOda7TXeACFxhcT/vsofHnEGLo3jFL5d52/Pr5T3/6092zn/3s7lvf+lb/8qlOdaru3ve+d7fXXnt1b33rW/vXz3Wuc3VXucpVegFvr3YteX9TwjCb6S0hlk3kL3/5S3fnO9+5+8AHPrC1tp/+9Ke9xi+7aP/pTne63iKwAsY+3/nO1z35yU/ujn70o+/r47Ssav2yuU1ldIQ494cGP/7xj7s73elO3Re/+MXeDQWP/OEPf+h+//vf7/D4YxzjGN0+dY4OPXJZ39WvfvXeyh360IfuznOe83QXv/jFu8Me9rCjgrAJCzeL6a1ZywT4JddPfvKT7vOf/3z3la98peOjme2Pfexj3bve9a59LSJAzTN9Pqa/EnZMKI54xCN2iMgF/PGPf+xudatbdXe84x27Ix/5yL0whfGtW1jmBur6om0x13/+85+75z73ud3DHvaw7oQnPGFvlX7zm9/si7mZc3VBFbR63dUCWa+hwxnOcIbuiU98Yv83C2gs6z3CEY7Qfy7Kso4rmMz0IQ3PAi3g1a9+dXeve92r+9WvfrVMgfvF+IxnYhwByRUBQFSXe/N3FjpEsKMd7WjdRz7yke7kJz/51rMiACH0mEmubirziiB72A9/+MPuale7WvfVr351cG3mGIBmjsarlixgbShiGROAOtCpT33qbvfdd+8ufOELb2Ed75u3nyjQMqHOMyczvR2ESfva177WHelIR+o+9alPdY973OP6Zxq4Rd1BrSSWZtbrLGc5S3ea05ymfxaiupfpPuc5z9l95zvf6f1fgFGY7/khagQIQWn/05/+9F6IEMqzK4gcMvdVEHIvIn7uc5/rffAxj3nM7kEPelD3pS99qZ92hKECsKynajE/7nnWEKE67nGP253xjGfccnVZT6VH6Bd6Rwj9f4973KN3B9Z3/OMfvzvRiU7Uf7Qq5BTGT2Z6laqnPe1p3SMe8YgdTFtlxJiqAy+A2be//e1u77337n9b+Cc/+cnuBCc4Qfeyl72s22OPPXqNff7zn98zHgB65zvf2TP0yle+cu8/MQSBCRH/OTQ2At/97nfv7nCHO/RjxNwOESVMwUhC9KIXvah76EMf2v3sZz/bWkprZeLD3QCMAaC//vWv+/tvcYtbdJe73OV6V0BY4BA/l7/85bvPfOYz3X3uc5/+vmMd61g9yPM5wmGMavUqHWPxDne4w/XY4BznOEdPj9vc5ja96c/6xmi/g2BNbaJAEA/ms4OogY9IvhAsxL/RjW7UTyTgi3m0WAx6zWte013pSlfqmUeT+PxLXOISPZJ1AUC0lYBc6lKX6jXa8zD+61//eh/q+f/jH/94fw9tft7zntczK+Ggef7tb3/rnwdEPvrRj+6J6Z4wL0SIMMd33/a2t+2Z7rI+VzTSPXwuAfzwhz/cWyQMvNa1rtULKFdlPD+E+v73v38/x5vf/Oa9xXABayc+8Yn7133G3/e97317Yc+YZz7zmXs8BPSxfhGEWKoqcLT/4Q9/eH9P8hzLGD9Z04VXJoLgb37zm3sCD/lWA17ykpfsXvnKV/aa6PrlL3/ZMxjjz3a2s/W+qfrMPAdxQ+gQ230k+93vfnevPd4nRNe85jV71/Ke97yn22233XrLU5FtxQYQ9mMe85h+vhXkRcPjF69xjWt0b3/72/u55d4Ihfmc6Uxn6l7ykpf0IefLX/7yPuwkwO7hczH0ghe8YM8A8wya91lCSOhgnsMf/vA96HR997vf7R75yEf2SkIQhK6nPOUpOxpNwQhUnU/oErcGw4iMRACuStcx5s9iuoVc97rX7d7ylrf0zyMEpJhpjjaQwp///OfdzW52sz7ccsXXZRKIVFOurQDEqgSg1M+HoFwDQp7+9KfvGYlwJP4kJzlJPy+alrGNRYMxJoyIH8z/z3rWs7q73vWuW4mjlmAsCveDIbRcuIYWsXCZo/+DQcyr4oT6TOvwGb9p9FGPetQdkjoE/QEPeECvPL/97W/3xb8IOKazniwQHkxJDE1iOgLlgSbBT5qUgS9zmct0b3zjG/c1YMyN2QaMBNlG22oSooKsiqbzec+ooV0EJRrp89e//vV74EcDb33rW/cAM77Q+29729u6i13sYr2VivYg/Je//OXelXBHFXXf7na36yRa/MARhLgSts0LRICylghWXVsbUVRu1ijF38EU3KJ5xlKwSMkDnPvc5+723HPP/v0A6DENz+uTmO7mEIqZvuxlL9v94he/6J9hQU95ylO6W97ylr3UJ31atXqMCPn82CQXJYIqKo95/sEPftADpyte8Yr97+td73o9QArWAJqkeSvKRkhmle+swsglPOpRj+qBJKAmZGsBYUX+VVDHQsO6zirw9bNDEUb9HJBI8fIZQE5cH/e7jOE9zacAOQPErNJs5i1a6z0p0yRgKoqsRMzf0fp63xQiDQlRhKa1DJlrNL4SArhiNlkqfvMZz3hGn1+IlhJu2OENb3jDDoWQlql17ClhUp1//WwEdmx9Xs964A1Mp/lxHTASXMOlhSfLGD+J6fGxfA+Q9oUvfGEr7ZgBSBupayUuDGWOhCZJniByTGUQ9Rzmt0Tyf9UeVgcGueENb9i9/vWv39L2k570pD1Yk+nCeGadVYi597pIwX2et6kqWF2btSc8tHY0Qx8hXAWj+RvTzYOF/ehHP7oDTzGbpb3xjW+8JRwbYXpF1xe60IV6IpkQ02giJoV4fGBMfKQ/AsPX8o0mr6ACwecKqInPXoX57UIDFjFWjGz8aIIw5yEPeUj3hCc8oQd/5pw10nwgNOtYdy7VQqAFQccol7/REugUukH/cT2VfugixQ2n/OhHP+o/Ky/g8p6Q9Pa3v30/5xr9jDF/kqYHyPHX1772tftKkUth4LGPfWyf+67+vCVUDV0kdr7//e/3JkpGSUwr9HJ5hsWuy/yKzD3vTW96Uw/yojncEb+466679iAo2syKJRxtib9Me4aELuPFqoXZtJr1EWnIUIrhhXqxVtVdBCyiF9whbCSUQKkL6n/ta1/bf36j6N3DgzolSPj15NhNUMgAPNUEQQVh8T9JgFio4gWCq7ixHqRYUiLMR/RatPD6Kr4zzGC2FUhcYmRxvrxB0qteB/KkhONu5owXhmWesTTRRr8BzSc96Ul9iCbUlJQSarlqFNLSzv9xB0w5cJmLWZfMyjhT5jxZ0z2UJNF24AHzQxzFDpkpodxQXFo1v1oEvozGQcmkn7RahPRiFbTq8+cwv4ZUYnQALhczGH/qNe4GGK24YAoBh+4PWE3UAPg+5znP6T74wQ/2VpFFiWYnRKwCXseN8HiWBJREVDJytFzORPQxVct7+k1B71USJSUQiIZWdO4eCZK73OUuW+FdO/kwLOYu/ofVMHn5brVzvo059pN7WuJO8bU1rBPzApEVKG1JwD5/SLwoZkRj24RSvTd/V43Ma5UmTDjNVGrmFgl0mibaKGZoPRFalvF+97tfX4+oz4epRB6EucVSQ/PdmuMcpkcqZaekD13yz1KcChxy0qzAogREi2KDkD2L+WWqHv/4x/eugiRbEB8mdRmGRHjaUK1daH0foJPfp3X1ihDAGdBz5rdIyyuz25CLxpk/M27Ms571rH0c7XcyjG0SZ2ys5EZYVcUamU8ar0DlYnWNxTUO5UjGGD9Z0z0gJsRAD3zgA/tnmjDNBJbkf92zDIhVZvi7JTTfJ8cP7XtPXlrpViYqOet2nMxliPHmiIC0hebFPFZgBxgRrEUWZJHACkeBQCjaRQlECNZRk0FTXVW1bEHlrJUoKW1YgOAnPvGJnu6t8G1E06NleThGJ75FUH4FoLPYCkoWDd4yvzWRKk8Y9c1vfrN/6+xnP3tfuVLls9DqOzO/MZfifeGYcmt8bZhPU4Rv6VgdEqCq3QFV7sNsWEAUIo1rXkCtli7COuTzl7mmOlZwFHfqufoOXNZgPVxGLMIiWu9g3aaa99Z/YQQz70p+W25aFUqjwDLTWydRnx3tC2EBPCZeWJJ8M6B3z3vesy9NuoaihghBGGgMjFDGDLPzG7jCdOZyaN6ZX8UiQOh73/ve3h29733v6+ehxq3h4tKXvvS+0PgORJ/Qxx8LaI5ic1auKpleOtapgtUpwLOnx1SmVyL6m5+R7E+bkOqTsiBtlPAQw9f4fKoUVs2ovg/QwxhFFJeIQb4fw8T7TGCKDlWT8rf3xeWihQhWfgNZulfNudXC/F979ZnUF77whX2qlnabi4obl+fv1O7jw6cyIzSqLk8GDsPF6bV1TCJMjmRO80SeP4vplfHMzSlOcYotU4npypPalBAvtfStgSZI95BgJGVJC0k8bcUgTHRxK0JFjHPF1EV4/PYMNX2WIbF6HQsYTetXLEOdd0ASxgsvWbNkxsTaxpeZdM0BVGOKUOfOmvDhLJ3GkeQvFISEcKvQdzbTa2Hipje9afe6171uS3MkGmjjRS5yka2K1JTQZ2jxrb+vKUaACaGTICJkkDmwB4HXFKr58n/MOkQ9djHTegNqnsEc4lOBSqY7rdy0Dj5Qpz/OcY6zL0vTCs8US1fXXCMgVg62ETGhZ1rMZOdWGWc20+vExNRMLN8S0wPISNSI16tlmGviqqnLZysh5J4xXj9dLkTAeEJXmxuYYvPxWnUfVUvMm+vgKmp8b2wo/MUvfnFf3/a/tDGrptzqGsMUUxg9dE9VLNm3ZNyCQdD3wQ9+cP/RVVzobKaHkUHxzKJSpPp6ULHfQJ0slPg0fnFVxmfM+OBoL2CHIRiQS0jHd2tKdHEFtFzMvOxSWROBRIOEjkIwpctcchFat6yvRg9zgOvYPKpAAm13u9vd+h5CV7aCySyqZtZrLl1nMz0MTPUM4TUrMHuyZ7SJJPJxtAa4M6lVQU1dXAVZ1Xe/4AUv6Fud4ud9ho+HsLmCOZdYXWSgMifbhfjRMBaEO4NXhnLlc8Zp760MB9rE9xpW5OnhELRlUYBIUVPNU8wddzbTo3UZCEM1CiJQ2nNpCpNkciZrQTW2XRanLlpE1ahq2rRsibeh6e24tFnxrWlIrEmWuZo2JMihURJbLJMNJHbuuDBZSVp4KCkTS7sKLVdieiYdH8u0A3UKCjHx7pE+vclNbtJn7HKtMskhJuY5VQiYZhqf3bBD/nuOQETDWa1XvepVg7XqTTC8nZN+PDVyJewImbIsN8aC1XWtMv7KTM/A0WBmkFn80Ic+1K+hxpSyRkIb7cKswaYZn5qAMNIYcghh2Bwmt/dmDUqw8eHRxHWeWz9b6+VAKbwAeCbWp+GiE/UNlmyoijl3LiszvWpugBVfBFXqTbPhD4H4P5quTi3kYe6TRKmTXUVi42pi6rQ5QdRV4OYSpN6f53BfwrkAyVXD0NbaJST03He84x19ckcVkx9HOwxnylUvratGL+sozlpMrwOnec+EJUG+973v9URilm5wgxv0WTpVs+oaVskmtf4wFkf5kRlWxkyWcB2G57PmeLKTnawHqrJt8eWrCGmlV5JO2XXDhwOJTLhNDi6Mh5UIg/dpfM0mrrq+tZgeTfPbZNIUma1BmaD35eP1gWEME6wwUz/fav2QJLc+Ov9jjPicJdmEWR+aS1qNjdnObUwAhnBHG9rZGMJ3A2g2cAiBI7QSTUw+WllXCkKrCNwOa5qTe18mWUGgTDvUKXXYXsy7njAInxuQ6BgjThWaobGzeIkTyRfWJj5v2VznvB9zbk0A1pCwthrYrimfyZwltHTBSA/LLFKYegkdNWFc9KIXXamosmh9a2v6kJ+yMDGznjP+UKiT8IqfkgTRI6dBcWwbTtXq/O133QIlR6CzVRGl7kyZw9C59xIuVb8cEmBObSk5jF3kd2k0twd0xpS7n1LIclqX9O7UMvWcdWyM6VWS28VqsJDAyaY+C6HpwB1zH4Tqf8kcWS9X3RNWhYtJhKhVmmjKKld88yqWgdByJ4Q2u1Gr9md7ktf4YskV++7QhTJguEhDlU54JttG0+UCxObpDq6uYB3g1tJno0xvGR/t1mjAz2c77hiT+C6xtspZvcTd+r6ZQcxGcK9NvZIRrIyuDYlpgY7WTo3v9dzJjZ/2tKftwR4f3F7y9Xr9VMgWXRhty7VegYobNgHctp3pVSP9nXBOAkee3OJpJ6bVBgAoXzKHtNMK4R9h4aftqAFoKqOnADYES9jVMlKBBaFTIq2EYZFo6yIr0I4vRaujh9kHWDMexE3YaXAsQN4zN5aCsMMLavIt0Jsq2HPu27imDw2OeH4skuTziwhR/TCmt2CmfVY6W6r5HFtsG6tLCSv9IrL6ef4mTMwvK6LA4rCECJfxjDWm+RGqhF+L5hKc455or158LU+6YGoL13Zod53btjE9PghBEI722EH6zGc+s2+iHNIw2pNYtFqMRAUhPmEZ08JqwuUFYAkt20JGjR6LLhbILhK1c2GU366xZE+N2d2TvIPXMz+/x4SZtbFxRGcMs77pqt3YWreF6TVc8TdiCN+kEodOaKpod46Zau+NyWU1tFE5xUFLVy5ETSUuDAqhMa1GBrSeW5HLhydqTWHuHFNhHLMYspbyALKZ5lEbHTcJ4DLvjTO9aniYoOsDSBG/Z1FDBJCu1VQI2QtXspM0mhONk5u2OaGa+YxlD7pNAfrvg/7TP5d4u5rPVkCjofmsfnjlWeXiFk2zHLKPql/GTSsTTCJc5Tbk0nP+zZCwVCsiaaW7x8lRmy7dbpt5bxnu2AymK8h1CHzRShIut8zfAkLLMk4AIavRml3Hiuqhy/krqflPiZtbhgbJh/maGa5whStsnR1D4DRnEGhCpZBUrySK5BKEZ7CDZEwFo63w+TyXpGkD5qhAN1hgrpUZun9jml41xmIs2iY9BYShC2P0mOlMye6V1o/XzwUXSGbYc85NVCHiuzVTuOYwe2hu1aRWjdPUAKXL81sjf6xJUhQwpfecb1d+1hGT8+WGFAGuISQYP+W5cwVho0w3eHwmXxgmREpDTPu5oFads65F6Dgah8jMJN8HH7RmUXzfhjvr+sNqucwTg/TRSSgFoCl3si6JROohBi0zqsVhxu0U4gKG8AKLZyy5gNoltMwKThGAjTA9xMm2Jx2xUpVDoQfN1q/tvaqRraWIMFQzm0JO+sXcw6xyH3xqawI3QaCW8Zit1KkVGrMIAldjbjlZashs57UIps/RelnFei5OZVoydFygsSrQnMLcsXs2wvRoeDbX8c+SK7lSP6cVSqxpRBjbRhTC+B2zrtERoWMOQ0Q7TZnYaNgmGN0Sq4aKxqGBCiGYwY1534GDMEVlfH1OixlyYLJSsIydHUPV1AcUwgywQ3riWsFehflrMz2LyaQwwd6uljmQqWpYTjUcY1LVLJbA/elZH/J/UrYQMgasa86XETCWya4TGwmTvCFo6gWveMUrtk6EqFpZBbFatDBe1xHAK3dR6WY+gJ1WLQc3pAd/2TyXvb820w2QBgpZNvFxPevcIm2xhUj9diWz1mplJUjasDQRqNQtipMVMKQ+a0i2bOFz3o9gp5YAZAkt42ZidXS5CE3bo0BaYaz/pwdBkwaNT3+f+QW3AKnayWsyaB2LtjbTE9dikuOugKzKIEjU/myNkxGORUSoWSnlRV21y/LsctZi9woIw4h1zOEQivc8Lio+PQAu4ym6eE/ZdFEUUc19GC90VUyqft/fwJzysfzFnBMnts2nZxL6sUlkdoFk4vLLwqyY6pYJVbtTnCHtdq9oIqjMW6SdABEAmavGuHNy2a3v9TyvxYow7Tlfp00F14ygJlHbqnNPPl8FqbqypKs1YNbTp2NNCBolWKffPbRZS9NNOmY47UoVWSM2gKNtN1IfprfEzXMkdDT627i3TMNbIWBptEypyedKM2FrDltLUK2Ev8OQMMtztDTBLIsKPvW5IhjMD2BN6neI8VEe4V+OBq8m3sFI+ufkNOJmVjXxazE9g/ttF6X0Z42fNRLKYQfUDGXGagVOrtuWpLqrZI7vda+kjxBK4gTzwzTvxRRXBtfnm18Yk9ehcZbK9ijrm3rFxQGwPieBMxTS5XmZkxK08DP5jgiRer1chMLRuiZ+ZaabZJiOsXrbhTJVO2XOtEXlvlbCk3SwMDtUSLhnzdXwlnHxgzZaKLgAWGrWbap0jIHcCyQtfgawVAZdEYgKqGIVQo8qUFEAFTS9dRhXN1ZW1+aZoZNSa226iPWEl6SCw/T9RdMzuG4Wfq79hiJnomdnZ0vgbD0GYmSmstd6kQ9Pu3CIHgKH8OkibZG+dKbCiA4X9yA+MxltQlQapmmDe6HZMEpasTzP2Mvq/daohGyMmqHztzmoGaATullDDVursAjR9NnnCtNl8eQ6KtCbanl2UIxVu2Ej2SYuLudz4uMzgFOQHAjY+m/Eg+olJBwjBrCNVd8Qx3vLGhUqgeJzQ9ShpskqXGOWBbE9I1Uyf0shi8kVh7gvVkEiilUgLPmOmtqAESEkEFxPdp1GaSrDzYt703+X18N0eEXOwlWt5lzGr2zea2gFrElDZmdlJmETPbOaCUYTMRGjmTwZqQr+6gJajRWaIbjSI6KbAyJDu9yCg37zvWdD2a0KyoLuYyXSBFHNdN6DE3SoSpAQYtuh0w1rviyGwpIyLBdnt0rMc+2ICZIHbFk34V3CWM+Jebce1ihXnkH7AeZsDat4ZQ7jV2Z69emYLmRqmcdcZoIWFBMJ0TJhGDbWlZJFqFkTKADGQT4sxFAOOtomcSK3zzQvwgaL0Hvew1hayYrZZ1+vhFhDOXGlVOfV0WqJoxoyRnsJj7jc+XCJMDzfvdYCixDkYAnjqfDpIyDwbQ5g25meiQeIyX0jTqvp+s6qRmhGEG+me2ZRlo0WyLeraGU3TBZm3Br/togbCOM2EGjuFUHh/wE4xPeaNY/lvyuYi682rlZtc1CgYYHC/KwbogfM+Or0APgc7ScMOeY798v3e54eP2PuZ5oeU11DLSGJZEqr6RZNM/koTFBVakORypQQXJsTba1bn2pdOxpRfWEIn7ALgxCIVZm6Zz1MSQYseKSNi1t/2mKWFmjZySs9XSOTaoWYcq3U1p04HIKHiQJazUHVDThuDwuci+JnmfcaYiT5z4yarAm25lTVydkw4u9FVxhFg1uwUgk8lllbRPQI5NTMHq2SP8+X8iRimAKeFs3DpkQhbL5/rQpsaGOzB4spvyCNW6+4QaFtNoikEjcX1E1m+hDDNQDIMzvDfZGpnspwuzOVEofM6JSFDREdYfTTwxBT5sGsSoJUgDVl7PrsOo8K0Ph3CoLxc68Ird56R53qSlqU7Fm41qkhWxYSDXe2mVywcG1Mi6ZoF2Fhuph/plg4l2O55xK7XWhMPn+qWMHdDGlYPsfHskqaMjdVsavu0DP11csWtt8MlTlk3NQhApjr2myrQitofpWTrSZpeiae89mEJBIN9djK+NmYw6DbKRKdI7Lq979siuHxdwGbi+aDiKp6m+5Lq0Av7sOOlkVKUS1n/bu6UGGfTqS5jF/K9BA/5s5GBX5H9q1OZopWtwT3GW3Pau3pkMk9c8HJEDNDbO/RLCdGjZlW49HybIgIgJoitFPuqYx3v6YJ606+Y+gZLAKX4BsnK0jGeLSnhNxrzsiLwi1TmIVMz4cxxEAmIK0qJBqSPl0eJiCmBjggzWWXXSRSlAlBlk142fOGTDwG0l4uRHJjKH6HiCVXtrMDp0YYgC80PoaFVNsIhkSN0NV27za3gMkYL8nlFOpadl1Ex1GmV19kMBsVNELU0yEROAQELFSicjIzPyqZ4hiSsStmvfrZTWh4xqtE9pq2KseJDhFaelU515UQba6ALbq/pafUroQWgNnOh0XKydKeKVkjohDZJJETJTFXYbEMpzBvrEevzm2ppqcwQktI1FAGTRUJoswm+jRMJFwaMusmLZzTZBEJXjXZsIzYIbiv1+ROhpguLyDXMBYWbkIAItzpHaBAsn1tfsO+9bRZ+0w2XEgzi/dFTW2ix/fCyIxK3FQQOKREg0wPkQJo6ldYRrMzqFg8Xz1du1UQCVqW6KianM8rexKU2i+3SS2v2h4i2JOGmPnSAPdkHVq61PK3k+mZU1Kochys5/vf//4tQTQ+3EGBMr+afQSilbFZ3tA1mdBEQOHDmBKNano+CFFDmrJbrZbb/sskSrXWjFnMo1MYpDHz9RMWkWfke9TbTNsmNKp9RuajKKKLNd8/0zI91a9N44o6nxbJ59ugK23l7uGjMDWCGJOeb4CuFtJ7kjtq7sBo26m01Lx7QEyQAkaKAlXiAB8gTIdriNr6ZkzXGZqvoDAw0yoe1pxgh8syU7SuEITIpL5qehttKI7UMGo7rE61Pgl/hYhi7uzPp+Eqj3ayRvhC1/y2Fh059aDiuAigz+6i2vCxL/faJmfqAP6GIjX4tX6HtDHRFSyFUJkssKJVOPu8Y9qhVidLKZPul5oOncto8YlVQBFFpkws79pOTQ8DwnRRDgsD+ELfELvO3qE28Y5zTgQAABaGSURBVGolNH3AJ/XMHfSlhKxvjjAfCj0HzXs0l0+GCJnDSiSoPMeBxkRWzagSys/QIu/TcgvTwCixMPT1Getqdvt5c8l6FgE5AsiX5jCk7QCVQzjDmPrdZepclISJzkHKrcXJWlhiFUshqCsW0+s2XQitq2VeaN6r5gIYSn9Bu/ntoRB7So4tgSoQFLcLN0w+cSVBsIkhk91OAldLQqsQeCw2Blg1JVZfumkhzPPSNQNU6v4N09EVfhrT9GqJFHFYrljQ8ENLFaUa2za2g6a3plohRckvyY0wzoZ7YKGawSFNZ97VgLOggBXNA3nudpvSPB+RCZoa+VByxvyFbdKaAUzbObdERpiu+pbvfGVF+epFVjCCLH5XjWvbxeEtrVup0bfWYl/mPQuF2j1QLOlDCGWipJKf1xEzlsSoPl23R/3qbb5M3j5fErsdiZCqnSGQEAdB040ypMG6ZrMxY1MFl6FxqssBcnOgf8YUZQS9twxrEb0GDJXJKFQAKgBuvUOYaV+ankmSIsd1p8slDxViQIctUq+LC9Ohd5oeKc4zbMqHMtO4GFywaVNa56gaONaZm3HNjyuSe6hNi9uB5FNNNJ4UalyfuYgyNF2OWZoakThEmNAMJXh8zUq9N+vcgelVKrQ1awSM5CQBkGxR4sAhf5zJAoLKgLliVp32JC8PPMWUbhfD83wEyDctLRqL29L+TCBzTPkmzXwEMZlOLlTIVlvN+GrtWovGTZ7dXOuRZFmb5ku7hCsGGGR6NR2OrwQSckWS5HgRMGZ5SAsyWdWhnDbRMj6FlkXPWVUQKpDEvAC4Kc8jmGoCGjpS6t0k0wNe0Y0lhCHk32tyxnFm0qqLND1oXeGGNW3zDjmOZQiUDpp3DwjThzQd0xd1Y2ay/IoMWL2yOAi1mtuheHIKk9p7Mjai0AbxL63hrqq5H3p25qDF2gmPvk1yk4zP+El8cXs2P+gaTnhlXvmOuCGGRXPDdJou79GC03oGTys8C5kum5aBo+l8iDBuCtNV3fL9bFumZR+BculkERKu28NdmZfF+R3zqYgi6VK/yWmRMCWck9L0TRG6chE4IZTPruLjqzD6mzDBNUBxm96m/dmyPBbOBv3rsweWV9b06tP5FeXGVtPVdZmeug+tJXz+FyLxWe2VZzJj/FEl4ioErX4rGs5HCsHkBGJSp1qOaI258YsqV6kcDvnIqc+toAp9AWXC2O6ChSskkhZpeuifXEorOMCdgwyG5juK3pkcvsK3Dbii6TYkCuXqhMayRr6LFRIduhCWGZVnTvYpyYWp2tRGEP6P6eQ+lCHzrGWmvZ1jGE+LAjpb6zbGlDyrHTPazpfbtiRGbzXUZ1kbWdBYmer6Ijh+V7zSoneHGFz1qlcdFJzROF17lK08UoI1hWrPtbgwV5uUyetizWwYXKQJesuBkWhjFjiFoJVg7o8ppOFq/9YwtI9tqmbm+Wr+egNEHdGcMeu16NmexxLBRNLYQwyPggGfLE1dVytMnmXjZ+1zyDMl0DS2DKViRzNyBmCameh0rJoAcGOnSsKtFoDF7Ajt8oXuY4TIBKFlG/Oy4zPPHCJKy2jPDrP1wRFKWKK+XkFSNL/NEQwdNBCBtm5VMPjEXGXLctVn1/vzfvXJSsyKK3aujDE8nwsQa1ugInQ+zxqrtuntq0BOJk7SR6w/pJyDmh5kCF3GrydZ4bdJO3u1NfExrwhqMmk/WiT9maznabrMKRJ5VmVeTJsFp3TofaAIiuW/s3Gw+jjChACerV2KW+E3WYI8y1zlFbRUQfp1I2SskN8+y5IIZ9tDD4bWiZYqYrAQwc5zl1kb1bK99957B02PoMRN0Ga5lIDPuMfaoDKU8VxYZavfoxop9hCnTsjMRVvqZCzG55jtfNX1sgXm8wiqImez4LJjuj3TNmECKFWsHBktjjaQeChcd4rwsH5F2NiczJ3p5dYkc1K6bEMiO1dlFuUhJKD0CDgY2IXJ/LbPykdA4vVcvWX08L7nKT8LeeO/q9D7W2EF3gj9wvw0qLSYZ0vrF9XTPUzd3OLaypQcNu2pxfrUiH2GVC86/XjRwkk5adUlawyEtQCaqTtUXVxHLu3WNxZrYL5pHBRuCn1odoSgdpPU8eNrIzQxyfIMfHl2x1SNqmZd5xABEy+bJ0bn2ysyzlCRZxnzWcvstqlVN2MD2DqX6mV+BM+OWfsAx+oao+1S8c2Ya3CDWFDCOnu9nP1aCZlYmMlJkWUOakb8moO2IP9DusalPfxiNv7n/czL/xYumyafnW4Ur/mpfrQFoPU9YyU290zrhBWcUlHvS5/5WA4gDY2LDiYK0+r8sh64iVtg+RKVZIcRy8UVBajWU6isPc+r1m9U06MVfse3pyer1XZZK/VfizY4gANEITpQNYfhreaFYEMEtcDML5rtf75bAUOHaY3X65oqs4c0Lf4ymMJzPNeOWy6tNo9sEfF/CSf0ybxiihdps7kEJLdgM5iEwgk/IwiSWZo4awQVN6uqJlRjKRclzxa2QPugwfgjNV+JgEzGQDbHk0T+28UqyNbRxmXodJlpqwStCBhxWmEyFkFgCu0KyaH+61TxKvNznCe3oq+/dqJOXUd7X0sflpNJVtoFRmELa0JvDLZv0AUfJOEUgfcsVk0iiZAsO2tu6WaHoHaNEMIISYM6YXurd999916y1MjTWrWqlq9KRMSQcl11J+eY1uf1pHVtQiDYq/jodgwRC4YCrbTT3nSuSygmPSsRhtYsjaqZ3j6gtV5RQgkzOfu4yCD5Ics2aS9bFiytpwxI8uuV/PkQcKNt+WJaPlnI0sa26wqIvjLhXq3YRVNXFaL2czXJIWTT/TPWdrVsTMzFVK5RFDB0oZW8QJo16z1Rugie8FFNRHQSLLZo/Ut3uGSAAAhba9KMt8hkEQRpUFt3ZLTiI8XCtAVO4AaYSteqmuNzQGZFq5tmeJ4XEKsvXVQghTxl3tUyyuphZDYz1DAMHUInpl0cLivnahWthrmiC6dhJ3paJnSTNN0AMfPiYu3CkOzQFf8qbnak5qJLyMVyIB4rMbRlauzzMVticJnDEMHvZWBtGVHG3g+DMNo3U/g6kmVzjlDk0KKcl9fG0Pk/4WN+C32dgt3m1rNetQHVwDnblZcyPdKXSUHlUrFy6y0YiR/h+2ly0GwtpNTn5X2SLykz9g0HQ0wIMaFpUl4rhKsyddHnou0BSUJSBY32AOT6jJh/VTqHFQNr1U1URudzeS0hmnS2ipn1tqGf1wgeYBcXPMXKTWJ6JpQ96rJEEhftlZYfKFpzQJ3AkPZZWOJhvXhCPXu1cu8yXy8hkpMj3DtWe96UEFRTLPULOMqIDWl7QjEM14ELVc8BmQm5pGJzdk+rZJ4tcyhVvgyx74AJ5hw/EpBg46FdL20FC9GBtj333LNzhHXi/JboVcL9HSklVEITqHURSMp7snZi1gBJ42yXaa+aGC0kpPrLW9Mby0Yogd8w3LwXoeo6RoRY6CbdKjTOusN82TdCn681myr0szQ96FgsaUtNBReZEA23UMxfZnKrJcB4i/FMoV82SAxpe+2fzzHZYynHTWl5npOkD0ZD8dq5a1NjhA4ql8IV3s3R8DpO/DowzAW2FkWYhk5T9qSvpOmtb9f1AYjlyoT4LZZg6neVVa1PskG4oqRbv+JryFemgXGK9myK+dUyAVjm2TJDogS4lNBaheGhdSKmfPlgtSjGoP1S3mMWdRQETzXvVQIRmS9RL88VTYfsLZikxx1MIXi0Pr4sGp/aeH1GiMzF+IlGTDVvU+Yzdg8Cx7zrcRs6qEHzCYFYleHGrhZF+hfqrxYFfYHprHlO1DLLvFdTKzsk/m6ZLnNkwSa1zLwP+frKQOMxj9K/Q5rOpwppKsDZL3x6NNAGQgypGig1LV1bEyhTEHVLi2VMJ3DC3bk07nHPXE2vjJd8ST03JskhQ3rjfXvSHE2vIKYyXonSM4WKCXdCUKGj5srsBtluTc/agx9YGUCymncWEK7JPaswvDXvOfolwmU8AM4pHz0T/1fwmWrBZjO9xpk22kklZpKJndVzVXzGOmaXTa6GRhYk4+TUx6rRcSe6RjVghrhzCbBsLu37cT+KS3bA2h+Qwo4avu1TbeJl7hgx71mv0FCyK8Kl3iFP4P/9XNM1C8gIhdnxOTm/NMBsFQ2sjFflc+ISQidMDHizbbo2Sqwy1hSmtEkTIEr8nPEQX6eNRFE17VOePeTmAs5kPlnUeqqX9Sq3Jrk1V9Bna3q02m/tShapzRlRon0qR5B1auKrmKBW2plNKdcWKTP9at1q+Vn8XCJMZUysnKKRTJgwiqADbMrL0qGKHqtoXzuHJFsoltMptJ4l4QMo5+s+VnEfs5leQywIW5eG06Wi7QiuYdDOC33bq2bKWv8JqTr7Jh081YRmG9C6fnSM+Rkra/Fd6hIusnLWjek0T60h965jcTwjEQJ8JPSLKbfGuM/qVqcK7kpALhrot4Vlc2A0MMxnjtK3vaqmV20n+Tluo2q78SBmhSA16TCmCuccggyZWoIcXw5Qat9KnQATRCqsTQ5OqmHUnLGrcBlTvoLFlKEMiHNSBjdStzLPtWyzNT3SFZ8jPHE2m9/10sOlmzP+bU4cmee0fjR7sdtvkHA/JJ9vQqjmdRXzV11YmwPId79WX84Cyb61h+/PYXi9NxVNCN0uI+uxDq8LUfXrRblWsSgrMb31t2rsqkhtDlq3TZX+VRgQU8efKcHyb7ZAt7G5+wgf3x9TGGsUJk7RiGoh/B3h9jeCa37I2LE4MmY5QyfMmzLWkFWpn6+5/Zh7rkWXcAR7FSu6EtPDvEikbUkIzsdVXwvcmGS0vGr9HC3IArUS+RIf5cYW0OXZKoDKunroXTnMOHMYEryW0WF2gCgQJQmTL+XL3NNtWxtE07Q5Z33VskTI7CKS0qbJBB5ukBeg5eu6rpWYXs1vfGi+1L7V9nw9x5wifyVYBXQWb9FDViVajWjOjpE0UXLMYTsp6FQBHHIjxuM+Ys3ypfbZyFnnZq1+MF0tItq4CsODG6zRxkY5dRW2mG8+HE6iSBlnFcvZW4a5Gbl2QTTJhDVEQq8mXEuAJi2xICcPmCS0mjNhjIwGMKWqW2MdK9Xsi2chX0mTdndLOn2tp4aW/tfC5fgVySdNnxm7lpLjU20S1D8gQbROBjJWU/irZJx+hWxysGZWLqHcKmZ9y3Wsw/RoYXLRUqISCYgWAmGCRkCgLi5g7td1zGF6iBEA5n/5exlC5WDMUX+G+HNxG1C5LNdee+3V96Yxr6xDYuPqtqpVwXQZQ6h6DtOriQ7D1TMwPMd/xmrKhbAmNj+YT5Iycy3KRphezWMYr6kAAIm2J3PmrFMmVw041mFKX3obI+tCJfWtGxkiQJ6fpIpOEylMTRcaEGi4+WnWJKh2etbvi50yBrNLQPTDT007VyuXbiTn4msgYcIrXWATlkS7dBof51jJIbqsbd4zgZQcMVS/W44Gjc/3PuDD99sA6RrahhtNrQsLkJOOZUlYlDntx2Fu21E6RJCY02r+xzQqQpG0c+1GrfPP31W7Qy/P4BqZbrF+LIsxWcjghU0xfCM+3UMq45Oh2m233XrG54oPxAD5eqEPU1uv1oTm2Qjkc9qwlG79P/UMmfp8c1gE5OJGpprNMD3NHFOjkxrOcQ0sow2ZsYoBk3XHTnDHKqFgu561Nb2a+JrIQECFf18sE+0NE/2GqoEsOexs8V1EbGETf6dnfoqWhzhDgjSVqUPzbj8bK0JL2+9jXTQO7KBkqhE0++Qz19rwuIlE07YxfUjjvaahwuKyqaEFRogmoyUmVTzhI/n/xNeKOg7lYRnknGMxhghas2T1fRrJVLoCIoc+j/gI7/fQ0SVDY0e7ATlCLoNmrDYikMNQMcNsfW1cQphcsYNUsrZuvnw7GL4x896a6DZ1KfyQscI8F+L5GdrCa4O/WBSadk89yH5Mc9rnESzE06cnVpeiFbYBcF4fuxR1zEnbse+Xob1CUMxy0ECuRYLnqDS7WNJEEqGQneSfW2GMm6Ld/Lo8hGu7GL4tTK8aX9OYXoe6+al63mwAU3xtkHaIs8xMV1MvKSOEom2aO+oRpXlefX4LsIZCIfeL2c1bI6hwzjXkYmqOYEiwshafjcALH33lCaUw79qDsG7mbUy4N+bT2wEqeg1jmTyFGXuoaX/OpKkEbAszrRDUcaJxtFeBRzhY/WoIOwTexghSQ8QkZeI2hHOaNiSbdOyMmfuhIkgUIKZcskgyC6gFTl3rNFKOmq+BN7aN6dH43pzsk6Cx6Gxq8JrwS9yuFi45MgWc1fnnmZgsa6azxhVQ5Hkt0p2KfFvwh/kESMjpYv71EeSAgkWCWS0WoUcDpVmNJjlCdRP76Q8wTM9E2vjUIkNA5VBAD0ibyvgwXEJEcUXVKRsgw+x1ExiViDUkBchgA7kCGrpsA2MVen+LVhwrppPYnM3XM6aGe3OYu5+b96EBW+Yn/gaSoHzZvClXLWnaDROknzh3qkZPGataLH+nmSLtW8uydnEBwKlKncKMK6a8WoKp81n3vm0172OTqwAqftNvCNcXCOQEyVZL8rwQknnkY4V469SXpxIxDOeObGgYygwOAU+ugHCm2yVrnjrupu/bX5ge7YlJS6rW65oOEZPJH+p+rdbC35oEffuTv/OcTZv2zDcAbegkippNcz/3JUzkfrIppA3DItSbZuqy5+1vTK+MryY0msL80WImXzGiIvHW5NpwkQMQUvRYN9ypn08VzLhtD36LQzSDYrIUtJp4rlZYN+2CljG6vr+/Mr0lSDvxWAIIXwYL83OqdBsu2fPmMAQ+FoJPenQu8yty9zeGy+L5LSuY5Im5Vobbmi0JxD0Blq7qcnYg+swdKXMYOuXeAwTT60Rbfx/i+i05oiVYnCytW8u3CMzPympJ0Lgq81vL0hKnuoSEaOmgUXIlVLZgZ8yASRGEEymkkZPtSx0+Jn//MuNjAnCAY3rV/mg6LUvlyft6zIU+SdWmRMu0O27cfm7hlKJOKnLR/DCgNbfRzGi2sSVjuA4tyPbkh9H57VhQefT04wnnWJokgzaJLaZo8NR7DrBMj2ZWJsWvI6zECD9O48OEGj7JdMnSOa8lxZZkBtvkCyYlf288wqSl2bmzScB4dpo/CJIKoT58p1oBn9rAAvQOqMyOUBygmT5m9tOlI8ST2VJuzVUrbUyxAojD+ZRlFUJislutkCiRGnbqoiJLvjUy+fjaH+cL8OzNl6QJyJuLHaZq5Xbcd6BhevXJCJyOUCYYo/KNjiFSmylj6sXJ1czn3rgAZdzaLtU+Q92fuU/Kt0YK+ycanysYByqmt2CsNiIqi0LOtgrXtiiMi5BMIU7bV+czQjBCZZeqcm2bEzigAbVl6zzQMX3I11eiQ9p8bQ7VXfXMeZbBj6M6d9111x38dcUZByYNP9D59CHpreFdq23aiffYY4++Du40C2Crbh5on8fXA3xSusIwPlvcXYVsi2j/qxoeGBne02mdvvdlZmS/er8Nv4Zy285ztUsl3a6VYT5v5ykkroMlV3uowgEdlU+l90GC6XWxVfsxLQIwdYNA2pdSot0vS55TmbbufQc5po8JAGEYS4tWs31AT6ysy/CDjHnfBCEOTs84SGv6wYmRc9a6k+lzqHUQuXcn0w8ijJyzjJ1Mn0Otg8i9O5l+EGHknGXsZPocah1E7v1/WlWOAEsJJEEAAAAASUVORK5CYII=;" vertex="1" parent="1">
          <mxGeometry x="901.7708333333334" y="736.4516129032259" width="39.29093567251462" height="50.292397660818715" as="geometry" />
        </mxCell>
        <mxCell id="lFvNoh6wF1m9MebqzdBh-120" value="" style="ellipse;whiteSpace=wrap;html=1;aspect=fixed;" vertex="1" parent="1">
          <mxGeometry x="892.2395833333333" y="597.741935483871" width="18.859649122807017" height="18.859649122807017" as="geometry" />
        </mxCell>
        <mxCell id="lFvNoh6wF1m9MebqzdBh-121" value="" style="ellipse;whiteSpace=wrap;html=1;aspect=fixed;" vertex="1" parent="1">
          <mxGeometry x="894.6223958333333" y="600.1007300509337" width="14.144736842105264" height="14.144736842105264" as="geometry" />
        </mxCell>
        <mxCell id="lFvNoh6wF1m9MebqzdBh-323" value="5V" style="text;strokeColor=none;align=center;fillColor=none;html=1;verticalAlign=middle;whiteSpace=wrap;rounded=0;fontSize=9;" vertex="1" parent="1">
          <mxGeometry x="898.62" y="625.48" width="60" height="30" as="geometry" />
        </mxCell>
        <mxCell id="lFvNoh6wF1m9MebqzdBh-324" value="&lt;div&gt;GND&lt;/div&gt;" style="text;strokeColor=none;align=center;fillColor=none;html=1;verticalAlign=middle;whiteSpace=wrap;rounded=0;fontSize=9;" vertex="1" parent="1">
          <mxGeometry x="934.06" y="625.48" width="60" height="30" as="geometry" />
        </mxCell>
        <mxCell id="lFvNoh6wF1m9MebqzdBh-357" style="edgeStyle=orthogonalEdgeStyle;rounded=0;orthogonalLoop=1;jettySize=auto;html=1;exitX=1;exitY=0;exitDx=0;exitDy=0;entryX=1;entryY=0;entryDx=0;entryDy=0;endArrow=none;startFill=0;fillColor=#e51400;strokeColor=#B20000;strokeWidth=3;" edge="1" parent="1" source="lFvNoh6wF1m9MebqzdBh-278" target="lFvNoh6wF1m9MebqzdBh-55">
          <mxGeometry relative="1" as="geometry">
            <Array as="points">
              <mxPoint x="280" y="1156" />
              <mxPoint x="280" y="1230" />
              <mxPoint x="480" y="1230" />
              <mxPoint x="480" y="520" />
              <mxPoint x="932" y="520" />
            </Array>
          </mxGeometry>
        </mxCell>
        <mxCell id="lFvNoh6wF1m9MebqzdBh-359" style="edgeStyle=orthogonalEdgeStyle;rounded=0;orthogonalLoop=1;jettySize=auto;html=1;exitX=1;exitY=1;exitDx=0;exitDy=0;entryX=0;entryY=0;entryDx=0;entryDy=0;endArrow=none;startFill=0;strokeWidth=3;" edge="1" parent="1" source="lFvNoh6wF1m9MebqzdBh-279" target="lFvNoh6wF1m9MebqzdBh-313">
          <mxGeometry relative="1" as="geometry">
            <Array as="points">
              <mxPoint x="308" y="1430" />
              <mxPoint x="740" y="1430" />
              <mxPoint x="740" y="1382" />
            </Array>
          </mxGeometry>
        </mxCell>
        <mxCell id="lFvNoh6wF1m9MebqzdBh-369" style="edgeStyle=orthogonalEdgeStyle;rounded=0;orthogonalLoop=1;jettySize=auto;html=1;exitX=0.5;exitY=0;exitDx=0;exitDy=0;entryX=0.5;entryY=0;entryDx=0;entryDy=0;endArrow=none;startFill=0;strokeWidth=3;fillColor=#e3c800;strokeColor=#B09500;" edge="1" parent="1" source="lFvNoh6wF1m9MebqzdBh-318" target="lFvNoh6wF1m9MebqzdBh-64">
          <mxGeometry relative="1" as="geometry">
            <Array as="points">
              <mxPoint x="809" y="1490" />
              <mxPoint x="970" y="1490" />
              <mxPoint x="970" y="578" />
              <mxPoint x="1069" y="578" />
            </Array>
          </mxGeometry>
        </mxCell>
        <mxCell id="lFvNoh6wF1m9MebqzdBh-371" style="edgeStyle=orthogonalEdgeStyle;rounded=0;orthogonalLoop=1;jettySize=auto;html=1;exitX=0;exitY=0;exitDx=0;exitDy=0;entryX=0.5;entryY=1;entryDx=0;entryDy=0;endArrow=none;startFill=0;fillColor=#fa6800;strokeColor=#C73500;strokeWidth=3;" edge="1" parent="1" source="lFvNoh6wF1m9MebqzdBh-319" target="lFvNoh6wF1m9MebqzdBh-87">
          <mxGeometry relative="1" as="geometry">
            <Array as="points">
              <mxPoint x="827" y="690" />
              <mxPoint x="1069" y="690" />
            </Array>
          </mxGeometry>
        </mxCell>
      </root>
    </mxGraphModel>
  </diagram>
</mxfile>
